<svg width="507" height="101" viewBox="0 0 507 101" fill="none" xmlns="http://www.w3.org/2000/svg">
<path d="M458 1.52338C456.1 5.12338 412 95.8234 412 96.2234C412 96.4234 416.8 96.5234 422.8 96.5234H433.6L436.4 90.0234L439.2 83.5234H458.5H477.8L480.5 90.0234L483.3 96.5234H495.1H506.9L496.6 75.3234C491 63.6234 480.6 42.1234 473.5 27.5234C466.5 12.9234 460.4 0.623375 459.9 0.123375C459.5 -0.276625 458.6 0.323375 458 1.52338ZM465 53.8234L470.7 67.0234L459.2 67.3234C452.9 67.4234 447.5 67.3234 447.2 67.0234C446.9 66.8234 449.4 60.5234 452.6 53.1234C455.8 45.7234 458.7 39.9234 458.9 40.1234C459.2 40.4234 461.9 46.5234 465 53.8234Z" fill="white"/>
<path d="M178.9 4.9234C159.4 11.7234 147 29.5234 147 50.5234C147 67.1234 155.4 82.8234 168.8 91.4234C184 101.023 207.1 101.123 221.9 91.6234C236.2 82.4234 244 67.9234 244 50.5234C244 33.1234 236.2 18.6234 221.9 9.4234C210.5 2.1234 192.2 0.223399 178.9 4.9234ZM206.6 23.4234C217.1 28.2234 224 38.9234 224 50.5234C224 62.3234 217 73.0234 206.1 77.8234C202.6 79.3234 200.2 79.7234 193.9 79.3234C187.3 78.9234 185.5 78.4234 181.1 75.6234C166.6 66.2234 162.8 47.5234 172.6 33.3234C175.6 29.1234 182.5 23.8234 186.8 22.5234C191.9 21.0234 202.3 21.4234 206.6 23.4234Z" fill="white"/>
<path d="M0 50.4234V96.5234H10H20V84.1234V71.8234L29.3 71.3234C40.4 70.7234 47.2 68.0234 53.7 61.7234C69.8 46.0234 65.6 18.4234 45.5 7.72338C40.6 5.12338 40 5.02338 20.3 4.72338L0 4.42338V50.4234ZM35.7 24.1234C45.6 31.4234 45.6 44.6234 35.7 51.9234C33.8 53.3234 31 54.0234 26.5 54.3234L20 54.7234V38.0234V21.3234L26.5 21.7234C31 22.0234 33.8 22.7234 35.7 24.1234Z" fill="white"/>
<path d="M75 50.4234V96.5234H85H95V59.0234V21.5234H100C102.8 21.5234 106.5 22.1234 108.4 22.9234C113 24.8234 117.8 31.0234 118.6 36.1234C119.9 44.9234 112.6 54.2234 103.5 55.3234C101 55.5234 99 56.0234 99 56.2234C99 56.5234 104.1 65.7234 110.3 76.6234L121.5 96.4234L133.3 96.5234C144.6 96.5234 145 96.4234 144.1 94.6234C143.5 93.5234 138.8 86.0234 133.6 77.9234L124.1 63.1234L127.2 60.9234C130.7 58.2234 134.5 53.3234 136.7 48.5234C139.3 42.8234 139 29.2234 136.2 23.0234C133.3 16.7234 127.9 11.1234 121.5 7.72338C116.6 5.12338 116 5.02338 95.8 4.72338L75 4.42338V50.4234Z" fill="white"/>
<path d="M247 14.0234V23.5234H258.5H270V60.0234V96.5234H280H290V60.0234V23.5234H302H314V14.0234V4.52338H280.5H247V14.0234Z" fill="white"/>
<path d="M325 50.5234V96.5234H335H345V50.5234V4.52338H335H325V50.5234Z" fill="white"/>
<path d="M353 5.32339C353 7.22339 391.6 100.123 392.4 100.423C392.9 100.523 399.5 85.6234 407 67.3234C414.5 49.0234 423.4 27.3234 426.8 19.2234L432.9 4.42339L422.8 4.72339L412.7 5.02339L403.4 28.9234C398.3 42.0234 394 52.9234 393.8 53.1234C393.6 53.2234 389.2 42.4234 384 29.0234L374.5 4.52339H363.8C357.8 4.52339 353 4.92339 353 5.32339Z" fill="white"/>
</svg>
