<svg width="166" height="112" viewBox="0 0 166 112" fill="none" xmlns="http://www.w3.org/2000/svg">
<path fill-rule="evenodd" clip-rule="evenodd" d="M147.853 3.34525C155 5.18909 160.617 10.6021 162.53 17.4901C165.987 29.9623 166.001 56 166.001 56C166.001 56 166.001 82.0378 162.53 94.5101C160.617 101.398 155 106.811 147.853 108.655C134.913 112 83 112 83 112C83 112 31.0875 112 18.1469 108.655C11.0002 106.811 5.38395 101.398 3.47087 94.5101C0 82.0378 0 56 0 56C0 56 0 29.9623 3.47087 17.4901C5.38395 10.6021 11.0002 5.18909 18.1469 3.34525C31.0875 0 83 0 83 0C83 0 134.913 0 147.853 3.34525ZM109.511 56.0022L66.3843 79.9982V32.0058L109.511 56.0022Z" fill="white"/>
</svg>
