<svg width="682" height="614" viewBox="0 0 682 614" fill="none" xmlns="http://www.w3.org/2000/svg">
<mask id="mask0_11_938" style="mask-type:luminance" maskUnits="userSpaceOnUse" x="0" y="0" width="552" height="562">
<path d="M552 0H0V562H552V0Z" fill="white"/>
</mask>
<g mask="url(#mask0_11_938)">
<path style="mix-blend-mode:screen" fill-rule="evenodd" clip-rule="evenodd" d="M552.013 275.985C552.013 428.389 428.417 551.931 275.994 551.931C235.44 551.986 195.378 543.06 158.684 525.797C151.659 522.502 144.792 518.891 138.096 515.029C111.367 499.589 87.4184 479.774 67.2489 456.408C59.8968 447.945 53.0738 439.037 46.8186 429.734C38.2642 417.029 30.7951 403.627 24.4902 389.669C8.32142 353.953 -0.0154075 315.19 0.0398234 275.985C-0.0110492 236.709 8.35308 197.877 24.5693 162.104C29.5828 151.009 35.3474 140.27 41.8231 129.96C55.7137 107.689 72.7226 87.5223 92.3319 70.0736C142.818 24.8787 208.23 -0.0640235 275.994 0.0393827C298.055 0.0252544 320.04 2.65346 341.476 7.86782C370.272 14.8756 397.742 26.5056 422.815 42.305C427.639 45.3494 432.358 48.5124 436.945 51.8468C440.794 54.6012 444.577 57.4875 448.267 60.4528C466.386 74.8797 482.608 91.5383 496.549 110.033C526.353 149.478 544.926 196.253 550.3 245.396C551.453 255.552 552.025 265.765 552.013 275.985Z" fill="url(#paint0_radial_11_938)"/>
<path fill-rule="evenodd" clip-rule="evenodd" d="M532.044 275.985C532.044 417.372 417.371 531.978 275.993 531.978C238.359 532.034 201.18 523.747 167.133 507.715C160.622 504.671 154.255 501.323 148.034 497.738C123.241 483.408 101.023 465.028 82.3012 443.361C75.4827 435.51 69.157 427.244 63.3603 418.61C55.4198 406.822 48.4801 394.391 42.6137 381.445C27.6215 348.32 19.8914 312.371 19.9426 276.012C19.8906 239.576 27.6482 203.553 42.6928 170.367C47.3432 160.072 52.694 150.107 58.7075 140.543C71.5974 119.883 87.3815 101.176 105.579 84.9925C152.414 43.069 213.092 19.9293 275.954 20.0191C296.422 20.0092 316.818 22.4515 336.704 27.294C363.416 33.7867 388.896 44.5713 412.151 59.2272C416.633 62.0607 420.996 64.9996 425.253 68.0836C428.838 70.6403 432.344 73.3552 435.798 76.0702C452.591 89.4825 467.626 104.958 480.547 122.131C508.202 158.714 525.433 202.103 530.41 247.69C531.486 257.083 532.031 266.53 532.044 275.985Z" fill="url(#paint1_radial_11_938)"/>
<g style="mix-blend-mode:multiply" opacity="0.5">
<g style="mix-blend-mode:multiply" opacity="0.5">
<path fill-rule="evenodd" clip-rule="evenodd" d="M530.463 247.624C529.568 249.271 528.801 250.985 528.169 252.75C527.206 255.309 525.996 257.767 524.558 260.091C523.067 263.13 521.747 266.25 520.603 269.435C517.624 276.328 515.436 283.814 512.958 290.904C510.204 298.812 507.607 306.719 504.22 314.363C502.704 317.829 500.489 320.953 498.947 324.34C497.405 327.727 495.889 331.048 494.004 334.329C489.338 342.342 485.12 350.514 480.178 358.395C471.294 372.589 460.604 385.201 450.244 398.314C444.972 404.904 438.829 410.663 432.832 416.62C426.057 423.315 420.099 430.814 413.061 437.364C407.711 442.671 401.927 447.52 395.768 451.861C392.235 454.194 388.835 456.79 385.302 459.084C380.781 462.023 375.469 463.683 370.645 466.055C354.604 473.778 337.429 478.602 320.558 484.019C304.029 489.29 288.093 496.526 271.222 500.743C267.755 501.613 264.249 501.956 260.743 502.667C256.947 503.418 253.296 504.512 249.408 504.921C241.657 505.791 234.158 508.387 226.328 508.875C220.858 509.138 215.783 508.084 210.432 507.82C203.575 507.704 196.717 508.003 189.896 508.716C182.316 509.204 174.706 508.912 167.186 507.847C160.674 504.802 154.308 501.455 148.087 497.87L148.798 498.094C153.254 499.531 157.392 502.048 161.874 503.142C166.658 504.236 171.628 505.026 176.57 505.857C183.043 506.99 189.659 507.03 196.144 505.975C199.611 505.409 203.117 504.987 206.583 504.275C210.353 503.484 214.149 504.46 217.919 503.603C223.191 502.285 228.964 503.339 234.302 503.142C243.529 502.839 252.532 499.452 261.429 497.646C271.301 495.656 280.673 492.071 290.73 490.872C296.463 490.187 300.971 488.236 306.402 486.536C311.068 485.099 314.047 482.503 317.922 479.564C325.382 473.989 332.921 468.27 341.647 464.658C350.361 461.121 359.409 458.472 368.655 456.751C376.613 455.206 384.05 451.669 390.271 446.471C392.842 444.165 395.28 441.753 397.811 439.42C401.046 436.737 404.126 433.872 407.037 430.841C410.201 427.216 413.812 423.908 416.936 420.297C420.403 416.278 423.237 411.757 426.664 407.724C432.12 401.28 440.451 397.932 445.828 391.382C446.962 390.064 447.713 388.364 448.886 387.046C450.059 385.728 451.404 384.977 452.155 383.211C453.065 381.063 455.292 376.094 454.08 373.683C451.668 368.819 438.895 381.326 436.865 383.277C433.702 386.255 431.105 389.313 427.296 391.488C425.055 392.896 422.716 394.142 420.297 395.217C416.224 396.878 411.519 397.062 407.222 397.972C395.28 400.529 383.114 401.926 371.067 403.81C354.749 406.327 338.26 409.754 322.205 413.668C307.179 417.332 292.298 421.576 277.272 425.121C269.284 427.045 261.297 429.075 253.283 430.814C243.49 433.002 233.881 436.007 224.048 437.892C207.849 440.83 191.557 444.415 175.041 444.863C162.085 445.206 149.247 445.878 136.277 445.878C118.812 445.878 100.082 447.644 82.947 443.545C82.7275 443.5 82.5117 443.438 82.3012 443.361C75.4827 435.51 69.157 427.244 63.3603 418.61C69.6265 421.416 76.2004 423.478 82.947 424.752C87.8503 425.622 93.0436 426.742 97.1033 429.681C99.6436 431.734 102.508 433.351 105.579 434.465C116.73 438.05 126.668 437.826 137.832 434.544C142.006 433.305 146.149 432.014 150.262 430.669C153.306 429.641 156.101 427.836 159.145 427.006C167.779 424.752 176.702 423.131 185.402 421.141C189.54 420.192 193.877 419.401 197.95 418.162C202.537 416.726 206.834 414.393 211.236 412.588C219.672 409.121 227.514 405.55 236.556 403.995C242.237 403.059 248.828 402.347 254.034 399.711C255.721 398.881 258.252 397.708 257.988 395.455C257.685 392.661 254.034 393.412 252.031 393.754C246.192 394.769 240.247 395.296 234.447 396.838C224.203 399.503 213.714 401.119 203.143 401.662C187.247 402.716 171.048 403.665 155.112 402.835C142.458 402.189 129.726 401.056 117.072 401.174C104.827 401.293 92.925 400.239 81.2863 396.39C68.145 392.068 54.7664 388.114 42.6137 381.445C27.6215 348.32 19.8914 312.371 19.9426 276.012C19.8906 239.576 27.6482 203.553 42.6928 170.367C40.9924 175.046 39.5689 179.83 37.605 184.337C33.6583 193.039 31.545 202.46 31.3968 212.013C31.6342 215.749 31.6078 219.497 31.3177 223.229C30.6718 227.973 30.3028 231.031 31.6604 235.815C32.6753 239.321 32.9785 242.708 34.5206 246.095C35.016 247.153 35.7045 248.109 36.5505 248.915C37.3046 249.982 37.9744 251.105 38.554 252.276C40.6234 255.663 43.6023 260.183 47.1743 262.134C49.5626 263.32 52.0613 264.269 54.6346 264.967C57.6398 265.824 58.813 266.167 61.8314 265.073C64.2707 264.094 66.8274 263.439 69.4366 263.122C70.8724 263.281 72.2866 263.594 73.6545 264.058C75.4603 264.361 77.2397 264.203 79.085 264.585C86.6113 266.167 93.953 268.012 101.677 267.933C107.74 267.867 113.698 268.882 119.84 268.882C127.221 268.882 134.524 269.106 141.826 268.17C146.769 267.524 152.08 266.285 157.01 265.982C161.94 265.679 167.225 266.127 172.26 266.061C189.778 265.785 207.849 261.567 223.072 252.724C231.192 247.941 239.892 244.22 248.96 241.653C260.638 238.293 272.566 234.985 284.548 232.718C295.671 230.565 306.492 227.073 316.775 222.32C321.317 220.172 325.665 217.637 329.771 214.742C333.541 212.185 337.68 210.234 341.291 207.559C351.836 199.757 361.062 190.61 370.289 181.306C375.561 176.034 380.913 170.763 386.422 165.715C390.97 161.564 395.794 159.718 401.633 158.295C410.939 156.068 416.132 145.604 421.141 138.105C427.468 128.655 432.714 117.809 433.004 106.171C433.155 101.375 432.789 96.5763 431.909 91.8587C431.597 89.7419 431.003 87.6764 430.143 85.7172C429.408 84.5235 428.79 83.2612 428.298 81.948C428.034 80.8278 427.995 79.6548 427.771 78.64C427.547 77.6252 427.019 76.5973 426.795 75.7802C426.268 73.5924 425.174 70.5744 425.319 68.1626V68.0176C428.904 70.5744 432.41 73.2893 435.864 76.0042C435.929 77.0061 435.903 78.0119 435.785 79.009C435.561 80.2215 435.139 81.2363 434.915 82.4356C434.612 84.2148 433.939 85.2296 433.979 87.1801C433.899 89.1284 434.049 91.0792 434.427 92.9922C435.666 97.7367 438.764 102.139 438.724 107.147C438.581 112.231 437.453 117.239 435.402 121.894C433.597 126.415 431.646 130.592 429.458 134.928C428.051 137.792 426.374 140.515 424.449 143.06C422.504 145.381 420.742 147.848 419.177 150.44C418.046 152.521 417.026 154.659 416.119 156.845C414.458 160.799 411.782 162.868 408.777 165.807C402.595 171.764 394.871 176.588 388.241 182.308C382.796 186.827 377.859 191.927 373.518 197.516C371.634 200.152 361.998 207.651 364.595 211.605C365.755 213.345 369.419 212.778 371.067 212.778C374.854 212.741 378.591 211.905 382.033 210.327C391.405 206.07 400.75 201.022 410.622 198.083C415.064 196.765 419.849 196.053 424.027 194.129C429.097 191.769 434.006 189.079 438.724 186.077C442.454 183.77 444.669 180.805 447.463 177.484C449.045 175.599 451.259 174.545 452.999 172.819C455.029 170.776 456.307 168.404 458.574 166.638C464.12 162.219 468.968 156.989 472.955 151.126C476.619 145.854 477.963 139.264 479.545 133.268C480.061 131.727 480.414 130.137 480.599 128.523C480.665 126.494 480.599 124.385 480.599 122.342V122.013C508.263 158.611 525.495 202.018 530.463 247.624Z" fill="#C4B0B8"/>
</g>
<g style="mix-blend-mode:multiply" opacity="0.5">
<path fill-rule="evenodd" clip-rule="evenodd" d="M413.773 80.7882C412.797 86.587 412.27 92.3068 411.137 98.1056C410.003 103.905 409.713 110.349 407.367 115.7C403.413 124.925 402.174 135.166 395.926 143.297C393.29 146.763 391.207 150.493 387.82 153.392C386.528 154.242 385.17 154.987 383.76 155.62C382.442 156.49 381.045 157.808 379.806 158.743C373.097 163.646 365.979 168.694 360.035 174.558C353.668 180.818 347.605 186.96 340.079 191.889C337.812 193.352 335.439 194.406 333.106 195.698C331.295 196.898 329.406 197.976 327.451 198.927C325.081 199.659 322.827 200.724 320.756 202.09C318.925 203.443 316.938 204.572 314.837 205.45C311.226 206.874 307.72 208.574 304.108 209.971C302.447 210.643 300.708 211.025 299.02 211.618C294.236 213.437 290.73 213.279 284.522 213.766C282.571 212.91 284.232 212.831 285.84 212.119C286.831 211.668 287.705 210.996 288.397 210.155C289.733 208.713 291.193 207.39 292.76 206.202C295.475 204.238 299.06 203.263 301.986 201.497C305.716 199.164 309.407 196.33 313.019 193.813C316.076 191.704 318.37 188.383 320.927 185.747C323.642 182.888 326.924 180.331 329.89 177.655C333.357 174.571 336.335 171.066 339.841 168.008C343.469 164.923 346.464 161.163 348.659 156.938C349.635 155.132 351.217 153.814 352.232 151.969C353.295 150.301 354.25 148.567 355.092 146.777C355.962 144.628 357.095 142.625 358.031 140.556C359.085 138.144 359.046 135.284 359.573 132.767C361.155 125.229 362.671 117.624 364.055 110.046C365.029 103.604 365.509 97.096 365.491 90.5803C365.715 84.3993 367.455 78.3764 367.482 72.1294C367.7 69.8413 367.394 67.5334 366.585 65.3817C365.267 62.4427 363.791 59.886 362.737 56.8284C359.52 47.421 353.55 39.1973 345.602 33.2245C344.402 32.3547 340.593 30.0615 336.823 27.3071C363.534 33.7997 389.015 44.5843 412.27 59.2402C414.326 66.2293 414.838 73.5815 413.773 80.7882Z" fill="#C4B0B8"/>
</g>
<g style="mix-blend-mode:multiply" opacity="0.5">
<path fill-rule="evenodd" clip-rule="evenodd" d="M339.565 81.1967C339.011 84.4388 337.047 86.8901 336.138 89.9741C335.097 93.4788 334.317 97.0557 333.805 100.676C333.053 106.171 333.541 111.628 332.908 117.163C331.518 127.6 328.4 137.732 323.682 147.146C319.082 156.516 311.213 164.199 302.592 170.011C293.709 176.074 283.836 180.7 274.122 185.181C268.586 187.711 262.747 188.765 257.092 190.914C252.347 192.68 247.681 194.709 242.962 196.554C238.244 198.399 233.999 201.562 229.333 203.078C226.434 204.014 223.573 204.989 220.674 206.043C215.691 207.823 211.17 210.458 206.32 212.528C199.463 215.49 192.351 217.824 185.072 219.499C177.875 221.186 170.916 220.092 163.68 219.196C157.596 218.635 151.547 217.756 145.556 216.56C134.603 213.925 122.806 214.676 111.629 214.676C103.153 214.676 93.36 215.506 85.8601 210.906C83.7116 209.589 81.339 208.192 80.1396 205.938C78.6633 203.144 78.4788 199.612 77.8329 196.594C76.5148 190.386 70.6099 186.156 66.5765 181.609C61.3042 175.652 59.3007 168.127 58.2462 160.443C57.2346 153.825 57.3908 147.081 58.7076 140.516C71.5996 119.866 87.3835 101.168 105.579 84.9923C101.295 93.1239 98.0524 101.756 94.2826 110.152C88.6017 122.725 83.593 136.431 84.0807 150.48C84.2652 155.989 84.7133 162.157 87.6527 166.941C89.9198 170.631 93.65 173.306 97.2615 175.494C103.18 179.039 109.124 182.953 115.491 185.392C122.687 188.146 129.884 190.782 137.041 193.536C141.22 195.118 145.253 196.923 149.774 197.49C155.326 197.934 160.902 197.982 166.461 197.635C186.153 197.108 204.343 187.882 222.875 182.308C228.833 180.502 235.014 179.672 240.88 177.721C244.408 176.415 247.835 174.851 251.135 173.043C259.373 168.786 268.375 165.583 276.099 160.272C283.807 154.927 290.774 148.585 296.819 141.413C301.419 135.904 303.489 130.408 305.743 123.634C310.185 110.297 311.885 97.4598 313.084 83.5558C313.612 77.6515 315.655 72.3798 317.039 66.6469C317.935 62.8513 317.408 58.4758 314.402 55.7214C308.3 50.3443 299.297 46.9836 291.494 45.178C286.749 44.0446 282.268 42.5422 277.338 42.5422C272.408 42.5422 267.729 42.5422 262.905 42.5422C258.081 42.5422 253.757 41.5274 249.118 41.5274C243.661 41.5274 238.573 43.0693 233.182 43.4911C227.538 43.8909 221.919 44.5948 216.35 45.5997C209.76 46.7595 203.394 49.3954 196.988 51.3195C184.211 55.0924 172.222 61.1422 161.597 69.1773C158.961 71.2069 156.101 72.828 153.346 74.6335C150.934 76.2545 150.064 78.0996 148.522 80.5114C145.378 85.2916 143.086 90.5798 141.747 96.1419C140.91 100.166 140.617 104.284 140.877 108.386C140.811 113.931 140.268 119.46 139.256 124.912C137.938 132.596 130.556 144.009 138.689 150.15C139.82 150.965 141.101 151.548 142.458 151.865C143.816 152.181 145.223 152.226 146.597 151.995C150.75 151.33 154.85 150.374 158.869 149.136C170.138 145.973 181.922 142.203 193.6 140.727C197.146 140.279 200.494 140.543 204 139.647C206.188 139.04 208.257 138.329 210.472 137.907C215.599 136.971 220.726 133.65 224.746 130.303C226.592 128.761 228.108 126.876 230.019 125.334C232.576 123.225 235.66 121.828 238.112 119.562C241.618 116.333 244.966 112.827 248.248 109.361C254.983 102.284 259.847 93.427 265.568 85.6381C269.192 80.6959 273.212 75.3188 274.201 69.1773C274.952 64.4328 269.153 61.9024 265.607 60.4C261.759 58.7682 257.549 58.1818 253.402 58.6999C247.642 59.7279 242.369 63.1544 237.018 65.4476C225.234 70.6138 212.08 71.8922 201.838 80.1687C198.108 83.1472 198.293 86.0071 197.133 90.1586C196.331 92.1442 195.361 94.0577 194.233 95.8783C192.691 98.7382 192.493 99.4499 193.284 102.468C194.075 105.486 194.8 109.506 198.227 110.824C201.192 111.997 205.977 110.982 208.547 109.361C209.993 108.219 211.573 107.258 213.253 106.501C214.347 106.079 217.023 104.84 218.077 105.183C219.962 105.895 218.565 107.054 217.774 108.082C217.094 108.978 216.523 109.951 216.073 110.982C215.871 112.02 215.487 113.015 214.94 113.921C211.935 117.347 205.951 119.074 201.759 120.51C198.108 121.828 195.366 123.291 191.373 123.331C185.982 123.331 188.17 119.377 187.418 115.423C186.364 110.415 180.591 108.544 179.958 103.338C179.325 98.132 180.933 92.3858 183.042 87.8258C184.01 85.913 185.134 84.0836 186.403 82.3565C188.394 79.3121 191.333 77.5065 194.378 75.4638C203.341 69.5595 214.531 66.726 224.694 63.2994C234.856 59.8728 245.941 59.2798 255.998 55.6951C262.852 53.2437 270.049 52.453 277.088 51.1746C283.599 50.0149 289.333 52.5715 292.035 58.5153C294.908 64.815 298.296 71.6286 296.292 78.6004C293.577 88.1949 290.387 97.7235 285.339 106.396C279.117 117.084 271.552 127.179 260.295 133.097C252.387 137.274 243.793 139.607 235.436 142.731C229.114 145.252 222.545 147.103 215.836 148.253C205.397 149.834 195.828 156.002 185.626 158.572C171.581 162.077 157.361 164.84 143.025 166.848C137.982 167.778 132.826 167.933 127.736 167.31C125.324 166.967 123.096 167.191 120.802 166.176C119.181 165.465 117.52 164.7 115.912 164.028C110.337 161.616 104.946 157.623 105.579 150.849C106.185 144.483 108.492 138.078 109.691 131.831C110.521 127.68 110.6 123.581 111.615 119.43C112.367 116.267 113.078 113.038 113.948 109.901C114.628 107.162 115.736 104.546 117.23 102.152C120.196 98.0002 122.503 93.1502 125.627 89.1965C126.968 87.7478 128.176 86.1821 129.238 84.5179C129.957 82.9916 130.884 81.5723 131.993 80.3005C133.192 78.9826 134.023 77.2562 135.301 75.9382C137.81 73.6641 140.508 71.6093 143.368 69.7967C149.506 65.2809 156.091 61.4078 163.021 58.2386C169.769 55.2996 176.808 53.3359 183.741 51.0032C189.962 48.855 195.722 45.468 201.904 43.0958C208.902 40.4884 216.185 38.7188 223.6 37.824C238.37 35.8499 253.25 34.8154 268.151 34.7269C286.841 34.806 307.548 27.7288 325.29 36.6511C329.816 38.7359 333.375 42.4693 335.241 47.089C338.378 54.5974 339.917 62.6761 339.762 70.8115C339.723 74.2645 340.131 77.8492 339.565 81.1967Z" fill="#C4B0B8"/>
</g>
</g>
<g style="mix-blend-mode:soft-light" opacity="0.63">
<g style="mix-blend-mode:soft-light" opacity="0.63">
<path fill-rule="evenodd" clip-rule="evenodd" d="M50.2326 161.629C51.5507 165.082 53.2377 168.1 54.3581 171.606C55.0469 174.107 56.0571 176.508 57.3634 178.749C58.7605 181.016 59.6041 183.599 60.9354 185.932C62.4343 188.505 63.6075 191.254 64.4283 194.116C64.9687 196.225 65.0609 198.452 65.6409 200.587C66.379 203.315 67.1172 206.056 67.8817 208.785C68.4219 210.484 69.2079 212.096 70.2147 213.569C71.2164 215.176 72.3764 217.694 73.9449 218.84C78.9931 222.412 86.2294 220.896 92.0553 220.264C97.3277 219.697 102.732 219.657 108.044 218.946C110.835 218.629 113.65 218.563 116.453 218.748C119.137 218.88 121.809 219.184 124.454 219.657C126.747 220.105 128.975 220.171 131.281 220.54C134.59 221.068 137.872 221.858 141.193 222.201C144.897 222.491 148.707 223.031 152.41 223.11C157.683 223.203 163.126 222.662 168.425 223.229C173.047 223.91 177.702 224.35 182.37 224.547C188.447 224.547 194.51 222.741 200.151 220.685C209.549 217.259 219.237 214.465 228.675 211.012C232.09 209.542 235.371 207.778 238.481 205.74C241.368 204.053 244.465 202.946 247.246 201.088C252.508 197.83 258.312 195.544 264.381 194.34C270.313 193.022 276.047 190.874 281.925 189.49C285.879 188.568 289.649 186.564 293.577 186.05C292.839 189.134 286.104 190.255 283.691 191.124C278.116 193.114 272.066 194.208 266.675 196.633C263.156 198.228 260.651 201.272 257.883 203.856C255.247 206.228 253.415 208.692 250.476 210.656C247.59 212.623 244.327 213.969 240.893 214.61C233.314 216.125 225.92 218.84 218.367 220.514C210.815 222.188 203.433 223.914 196.487 227.104C194.563 228 188.908 230.227 188.671 233.008C188.486 235.235 191.188 234.418 192.757 234.418C196.131 234.418 200.586 233.614 203.763 234.945C206.034 236.075 208.409 236.984 210.854 237.66C216.622 238.642 222.549 238.022 227.989 235.868C235.239 233.047 243.16 231.611 250.779 230.161C256.051 229.146 261.179 227.631 266.438 226.524C270.484 225.806 274.568 225.322 278.67 225.074C284.627 224.507 290.598 223.822 296.516 222.834C301.248 222.03 306.428 221.516 310.765 219.447C314.363 217.68 318.581 216.573 321.758 214.096C322.601 213.437 327.399 209.299 328.519 210.247C330.852 212.251 317.579 219.802 316.657 220.422C312.38 223.13 307.829 225.378 303.08 227.13C297.044 229.594 290.849 230.675 284.627 232.243C277.457 234.023 270.313 235.499 263.182 237.317C256.051 239.136 248.683 240.046 241.552 242.431C237.966 243.534 234.468 244.905 231.087 246.53C228.002 248.111 224.72 249.166 221.676 250.813C215.085 254.332 208.93 259.274 201.799 261.567C195.6 263.712 189.173 265.127 182.647 265.785C174.093 266.47 165.512 265.271 157.05 264.388C148.379 263.373 139.655 262.88 130.926 262.911C122.859 263.043 114.805 264.73 106.752 265.112C101.203 265.376 96.7477 263.399 91.6467 261.501C86.0959 259.347 80.7714 256.65 75.7507 253.449C71.2596 250.634 66.0357 249.213 60.7377 249.363C59.6058 249.52 58.4899 249.776 57.4029 250.128C56.121 250.225 54.8448 249.876 53.7913 249.139C49.0462 246.912 44.288 243.248 41.9286 238.345C39.63 233.067 38.1328 227.474 37.4867 221.753C37.2362 218.468 37.1966 215.171 37.3681 211.882C37.3681 207.519 36.5772 203.223 36.6168 198.834C36.6168 191.902 35.8259 184.548 38.0139 177.84C40.057 171.527 44.2616 165.636 48.0972 160.311C50.2852 157.293 52.0515 154.051 54.3318 151.086C55.1358 152.668 53.2246 155.699 52.8292 157.333C52.3415 159.666 51.4584 163.975 50.2326 161.629Z" fill="#C4B0B8"/>
</g>
<g style="mix-blend-mode:soft-light" opacity="0.63">
<path fill-rule="evenodd" clip-rule="evenodd" d="M375.667 199.454C373.624 202.09 369.947 205.477 369.38 208.943C368.813 212.409 372.596 211.816 375.048 211.447C380.32 210.617 385.856 210.129 390.865 208.047C393.83 206.821 396.598 205.121 399.564 203.882C402.016 202.841 404.639 202.472 407.09 201.444C412.929 198.979 419.217 197.675 425.003 195.012C430.071 192.458 434.68 189.083 438.645 185.023C441.492 182.294 444.234 180.173 446.198 176.654C447.634 174.018 449.348 171.514 450.534 168.746C451.99 165.046 452.943 161.168 453.368 157.214C453.651 155.112 453.678 152.984 453.447 150.875C452.788 146.052 447.938 145.604 443.838 146.17C438.79 146.869 434.73 149.808 430.987 153.023C427.244 156.239 424.397 159.824 420.311 162.249C415.816 164.99 411.44 167.758 407.13 170.723C404.801 172.193 402.632 173.903 400.658 175.823C399.024 177.497 397.442 179.29 395.662 180.818C393.825 182.325 391.872 183.687 389.823 184.891C388.176 185.919 386.66 187.368 384.973 188.251C382.76 189.36 380.732 190.805 378.962 192.535C377.687 193.639 376.589 194.932 375.707 196.37C374.323 198.979 374.599 202.195 375.667 199.454Z" fill="#C4B0B8"/>
</g>
<g style="mix-blend-mode:soft-light" opacity="0.63">
<path fill-rule="evenodd" clip-rule="evenodd" d="M434.19 129.525C435.06 126.81 435.64 125.795 438.144 124.49C439.7 123.673 440.78 123.462 441.901 125.189C443.931 128.523 442.467 132.582 441.149 135.798C440.2 138.144 436.417 140.503 434.691 137.551C433.531 135.548 433.57 129.644 436.338 128.813L434.19 129.525Z" fill="#C4B0B8"/>
</g>
<g style="mix-blend-mode:soft-light" opacity="0.63">
<path fill-rule="evenodd" clip-rule="evenodd" d="M220.094 228.712C221.412 226.273 221.715 226.01 224.048 225.127C225.525 224.391 227.116 223.909 228.754 223.703C230.77 223.506 232.972 222.386 235.015 223.15C238.152 224.27 237.559 227.025 235.436 228.975C234.592 229.887 233.503 230.537 232.299 230.847C230.658 231.277 228.973 231.516 227.278 231.558C224.404 231.558 222.005 231.677 219.501 229.99C219.436 229.728 219.466 229.451 219.587 229.209C219.708 228.968 219.911 228.777 220.16 228.672L220.094 228.712Z" fill="#C4B0B8"/>
</g>
<g style="mix-blend-mode:soft-light" opacity="0.63">
<path fill-rule="evenodd" clip-rule="evenodd" d="M100.188 409.201C108.377 412.053 116.982 413.527 125.653 413.563C135.913 413.855 146.181 413.547 156.404 412.64C163.205 411.995 169.954 412.166 176.729 411.204C180.011 410.729 183.135 410.874 186.417 410.716C188.302 410.637 190.279 409.517 192.124 410.097C199.255 412.271 186.588 416.37 185.151 417.082C179.998 419.638 174.238 420.521 168.768 422.116C166.659 422.722 164.51 423.329 162.441 424.04C160.538 424.889 158.584 425.616 156.589 426.215C148.192 428.047 139.796 428.851 131.426 430.656C128.275 431.482 124.991 431.674 121.765 431.223C118.417 430.604 115.293 428.587 112.314 427.098C108.588 425.451 105.008 423.494 101.611 421.246C99.867 420.076 98.2305 418.753 96.7212 417.293C96.0771 416.433 95.6274 415.444 95.4031 414.393C94.5595 412.232 94.5991 411.362 96.4576 409.78C97.132 409.171 97.9524 408.747 98.8393 408.548C99.7261 408.35 100.649 408.384 101.519 408.647C101.532 408.858 101.572 409.056 100.188 409.201Z" fill="#C4B0B8"/>
</g>
<g style="mix-blend-mode:soft-light" opacity="0.63">
<path fill-rule="evenodd" clip-rule="evenodd" d="M317.382 493.455C313.122 494.646 309.075 496.496 305.387 498.938C303.779 500.071 301.802 502.008 304.175 503.458C307.378 505.409 312.584 504.367 316.037 504.064C321.995 503.524 327.9 502.43 333.805 501.652C337.838 501.112 341.793 500.69 345.773 499.886C350.952 498.737 356.054 497.267 361.05 495.485C364.756 494.297 368.298 492.65 371.595 490.582C375.109 488.615 378.486 486.414 381.704 483.992C385.803 480.553 391.208 477.864 392.789 472.368C394.107 467.795 384.222 469.443 382.245 469.733C374.905 470.781 367.693 472.578 360.72 475.096C357.702 476.164 354.473 476.981 351.494 478.273C347.54 480.025 343.757 482.108 339.723 483.663C337.812 484.414 336.138 485.613 334.2 486.299C332.5 486.931 330.787 487.498 329.099 488.183C327.412 488.869 325.33 489.804 323.405 490.424C319.056 491.913 314.68 493.112 317.382 493.455Z" fill="#C4B0B8"/>
</g>
<g style="mix-blend-mode:soft-light" opacity="0.63">
<path fill-rule="evenodd" clip-rule="evenodd" d="M396.375 460.151C397.126 457.687 398.707 456.553 400.54 454.774C401.963 453.39 403.321 451.901 405.39 451.611C406.919 451.387 409.344 453.153 408.672 454.906C408.1 455.871 407.405 456.757 406.603 457.542C405.927 458.629 404.995 459.534 403.888 460.178C401.677 461.191 399.17 461.35 396.849 460.626L396.375 460.151Z" fill="#C4B0B8"/>
</g>
<g style="mix-blend-mode:soft-light" opacity="0.63">
<path fill-rule="evenodd" clip-rule="evenodd" d="M422.064 400.212C420.332 401.253 418.51 402.135 416.62 402.848C415.185 403.178 413.733 403.429 412.271 403.599C407.908 404.285 403.4 404.588 398.997 405.023C393.369 405.576 387.781 406.341 382.152 406.802C372.214 407.553 361.762 408.41 352.258 411.467C344.261 414.019 336.521 417.315 329.139 421.312C322.593 424.695 316.368 428.665 310.541 433.173C308.645 434.78 306.853 436.505 305.176 438.34C303.955 439.479 302.935 440.815 302.158 442.293C301.117 444.639 302.066 446.247 304.122 447.565C307.325 449.608 311.213 449.792 314.877 450.293C320.321 451.044 325.738 451.73 331.156 452.573C336.76 453.492 342.409 454.107 348.08 454.418C353.893 454.682 359.943 454.563 365.479 452.455C369.404 451.05 373.213 449.335 376.867 447.328C380.426 445.285 383.971 443.269 387.346 440.936C389.851 439.459 392.232 437.78 394.463 435.915C395.399 435.032 396.348 434.267 397.323 433.45C398.839 432.132 399.96 430.538 401.475 429.259C404.909 426.386 408.004 423.132 410.702 419.559C412.785 416.818 415.315 414.485 417.372 411.744C418.584 410.11 419.85 409.253 420.574 407.25C421.348 404.971 421.848 402.609 422.064 400.212Z" fill="#C4B0B8"/>
</g>
<g style="mix-blend-mode:soft-light" opacity="0.63">
<path fill-rule="evenodd" clip-rule="evenodd" d="M433.953 392.068C434.873 390.381 436.118 388.893 437.617 387.692C438.817 386.559 440.399 384.569 442.059 384.041C442.47 383.872 442.919 383.818 443.358 383.886C443.797 383.953 444.209 384.139 444.55 384.424C444.844 384.767 445.062 385.169 445.189 385.603C445.316 386.037 445.35 386.493 445.289 386.941C444.946 388.944 442.995 390.499 441.334 391.369C439.265 392.437 438.052 391.896 435.877 391.593L433.953 392.068Z" fill="#C4B0B8"/>
</g>
<g style="mix-blend-mode:soft-light" opacity="0.63">
<path fill-rule="evenodd" clip-rule="evenodd" d="M509.611 321.243C508.519 322.084 507.529 323.048 506.658 324.116C505.34 326.027 504.233 328.069 502.704 329.822C501.162 331.77 499.79 333.846 498.605 336.03C497.049 338.745 495.217 341.301 493.767 344.029C490.63 349.986 488.139 356.26 485.332 362.375C483.921 365.432 482.695 368.569 481.377 371.6C479.808 374.85 478.678 378.293 478.016 381.84C477.608 384.397 476.949 388.786 480.389 389.247C484.659 389.827 488.956 386.15 492.067 383.699C500.203 377.157 507.181 369.293 512.708 360.437C518.244 351.686 523.609 341.169 522.225 330.508C521.718 325.681 521.824 320.81 522.541 316.01C523.2 310.91 524.769 305.81 524.861 300.644C524.861 296.98 525.533 293.395 524.729 289.784C524.619 288.604 524.063 287.51 523.174 286.726C522.225 286.173 521.566 286.726 520.709 287.372C518.144 289.234 516.079 291.702 514.698 294.555C513.011 298.06 512.919 301.843 511.496 305.441C511.1 306.72 510.638 307.978 510.112 309.21C509.584 310.198 508.938 311.147 508.398 312.149C507.587 313.957 506.994 315.855 506.632 317.803C506.315 319.002 506.131 320.122 505.801 321.322C505.538 322.257 505.129 323.259 504.945 324.208C504.76 325.157 505.09 325.921 509.611 321.243Z" fill="#C4B0B8"/>
</g>
<g style="mix-blend-mode:soft-light" opacity="0.63">
<path fill-rule="evenodd" clip-rule="evenodd" d="M470.121 384.516C469.265 385.359 464.084 390.367 466.088 391.646C466.642 392.002 468.171 391.646 468.724 391.395C469.769 390.899 470.726 390.236 471.558 389.432C472.092 389.048 472.507 388.522 472.757 387.914C473.006 387.306 473.079 386.64 472.968 385.992C472.968 383.738 471.545 383.804 469.647 384.568L470.121 384.516Z" fill="#C4B0B8"/>
</g>
<g style="mix-blend-mode:soft-light" opacity="0.63">
<path fill-rule="evenodd" clip-rule="evenodd" d="M482.485 396.403C483.592 394.927 483.908 394.295 485.464 393.689C486.599 393.025 487.801 392.482 489.049 392.068C490.696 391.804 491.461 392.423 491.593 394.084C491.83 396.917 488.337 400.581 486.768 402.598C484.869 405.213 482.655 407.585 480.178 409.662C476.606 412.456 474.009 407.948 475.341 404.601C476.145 402.571 476.474 400.173 477.74 398.367C479.717 395.534 482.669 395.547 485.833 394.967L482.485 396.403Z" fill="#C4B0B8"/>
</g>
<g style="mix-blend-mode:soft-light" opacity="0.63">
<path fill-rule="evenodd" clip-rule="evenodd" d="M206.531 88.1292C205.023 88.9468 203.706 90.0741 202.666 91.4369C201.625 92.7998 200.885 94.3674 200.494 96.0367C199.993 97.6577 199.36 101.111 200.718 102.508C203.038 104.906 209.259 102.284 211.513 101.414C215.902 99.7268 220.371 97.2228 224.944 96.1421C233.578 94.152 243.055 93.3481 250.476 88.0369C254.664 84.8915 258.28 81.0486 261.165 76.6765C263.037 73.9484 265.502 71.7342 265.752 68.2154C266.24 61.0986 256.301 60.6242 251.622 61.7181C241.627 63.9227 231.903 67.2152 222.624 71.5366C217.168 74.1724 210.393 77.5199 206.544 82.4226C205.57 83.7894 204.79 85.284 204.224 86.864C203.749 87.9842 202.695 91.2131 206.531 88.1292Z" fill="#C4B0B8"/>
</g>
<g style="mix-blend-mode:soft-light" opacity="0.63">
<path fill-rule="evenodd" clip-rule="evenodd" d="M225.089 108.109C223.916 105.473 223.336 105.249 225.287 103.654C226.933 102.39 228.699 101.291 230.559 100.373C232.776 99.269 235.227 98.7174 237.703 98.7648C242.686 99.3578 240.419 104.972 238.877 107.674C237.914 109.374 237.203 110.942 235.594 111.852C233.696 112.932 232.418 113.486 230.322 112.787C228.848 112.224 227.503 111.367 226.368 110.27C225.524 109.519 223.56 108.148 223.732 106.804L224.351 106.685L225.089 108.109Z" fill="#C4B0B8"/>
</g>
<g style="mix-blend-mode:soft-light" opacity="0.63">
<path fill-rule="evenodd" clip-rule="evenodd" d="M190.108 169.484C190.226 167.125 190.029 166.598 191.505 165.109C193.693 162.868 196.909 161.155 199.493 159.494C205.385 155.755 211.739 152.795 218.394 150.691C224.309 148.792 230.371 147.386 236.517 146.487C241.104 145.775 245.441 144.259 250.054 143.614C257.159 142.638 265.871 139.199 271.552 145.933C276.113 151.389 267.677 158.611 263.644 161.577C260.222 164.045 256.32 165.764 252.189 166.624C247.273 167.863 242.422 169.339 237.506 170.578C228.372 172.845 219.883 177.168 211.144 180.608C205.121 182.953 200.824 182.729 195.406 179.145C192.467 177.128 187.472 171.975 190.108 169.484Z" fill="#C4B0B8"/>
</g>
<g style="mix-blend-mode:soft-light" opacity="0.63">
<path fill-rule="evenodd" clip-rule="evenodd" d="M272.896 128.813C271.71 131.001 268.758 135.007 272.567 136.378C274.729 137.156 276.284 135.416 277.839 134.177C279.395 132.938 281.701 131.541 282.887 129.525C283.227 129.1 283.458 128.598 283.559 128.063C283.66 127.528 283.629 126.976 283.468 126.456C283.306 125.936 283.02 125.463 282.634 125.079C282.248 124.695 281.774 124.412 281.253 124.253C276.785 122.263 274.663 126.546 272.119 129.525L272.896 128.813Z" fill="#C4B0B8"/>
</g>
<g style="mix-blend-mode:soft-light" opacity="0.63">
<path fill-rule="evenodd" clip-rule="evenodd" d="M342.847 85.2824C338.893 89.3943 336.507 94.1783 337.153 100.017C337.799 105.855 341.608 106.949 346.379 104.564C347.817 103.976 349.202 103.266 350.518 102.442C351.836 101.414 352.653 99.4895 353.655 98.1453C355.928 95.3076 357.136 91.764 357.069 88.1291C357.069 84.5311 357.491 80.6828 356.529 77.2035C356.001 75.2793 355.211 72.6962 353.523 71.5101C351.52 70.1922 349.991 71.945 348.528 73.1311C347.111 74.0157 345.89 75.182 344.943 76.5577C343.358 79.5423 342.149 82.7119 341.344 85.994L342.847 85.2824Z" fill="#C4B0B8"/>
</g>
<g style="mix-blend-mode:soft-light" opacity="0.63">
<path fill-rule="evenodd" clip-rule="evenodd" d="M262.194 208.02C262.365 205.305 262.286 205.121 264.25 203.618C265.687 202.42 267.197 201.311 268.771 200.297C271.799 198.653 275.123 197.627 278.551 197.279C281.259 196.935 284.009 197.393 286.459 198.597C288.002 199.467 288.291 201.233 287.909 203.065C287.369 205.635 284.812 207.269 282.901 208.785C280.989 210.3 278.353 212.33 275.941 212.91C273.036 213.783 269.957 213.905 266.991 213.266C265.199 212.791 261.416 212.04 261.455 209.496L262.194 208.02Z" fill="#C4B0B8"/>
</g>
<g style="mix-blend-mode:soft-light" opacity="0.63">
<path fill-rule="evenodd" clip-rule="evenodd" d="M297.162 183.046C298.915 180.568 300.023 178.367 302.698 176.746C303.858 176.034 306.771 173.86 308.261 173.86C308.86 173.974 309.413 174.262 309.849 174.689C310.285 175.116 310.585 175.662 310.712 176.258C310.871 177.51 309.645 179.184 308.972 180.212C307.47 182.468 305.365 184.258 302.896 185.378C301.792 185.953 300.513 186.094 299.311 185.774C297.993 185.405 297.518 184.179 296.451 183.784L297.162 183.046Z" fill="#C4B0B8"/>
</g>
<g style="mix-blend-mode:soft-light" opacity="0.63">
<path fill-rule="evenodd" clip-rule="evenodd" d="M157.999 77.4276C154.493 80.9069 151.633 84.5839 150.499 89.5656C150.23 90.2834 150.182 91.0657 150.363 91.8107C150.544 92.5558 150.945 93.2292 151.514 93.7434C153.373 95.3908 155.745 94.4946 157.92 93.7434C164.009 91.6743 169.783 88.0368 175.055 84.518C179.906 81.3286 186.404 80.4324 190.121 75.7934C192.137 73.2893 194.246 70.5217 192.309 67.2005C190.622 64.367 186.338 63.1545 183.319 63.1018C178.924 63.158 174.614 64.3182 170.784 66.4757C165.847 69.2542 161.503 72.9752 157.999 77.4276Z" fill="#C4B0B8"/>
</g>
<g style="mix-blend-mode:soft-light" opacity="0.63">
<path fill-rule="evenodd" clip-rule="evenodd" d="M138.017 62.4428C144.766 61.1249 150.591 59.741 156.47 56.1431C157.656 55.4314 158.843 55.0888 159.976 54.443C161.11 53.7973 161.294 53.046 162.138 52.2553C161.558 49.514 154.163 51.1614 152.463 51.8863C150.196 52.8352 147.903 54.1663 145.701 55.2733C144.51 55.8024 143.364 56.4283 142.274 57.1448C140.073 58.779 138.755 61.6125 137.279 63.8661L138.017 62.4428Z" fill="#C4B0B8"/>
</g>
</g>
<g style="mix-blend-mode:multiply" opacity="0.47">
<g style="mix-blend-mode:multiply" opacity="0.47">
<path fill-rule="evenodd" clip-rule="evenodd" d="M347.842 212.831C345.903 214.05 343.896 215.159 341.832 216.152C338.444 217.536 335.36 219.486 331.999 220.936C328.045 222.649 323.774 223.782 319.701 225.179C313.943 227.047 308.406 229.535 303.186 232.599C297.913 235.815 292.878 240.507 290.176 246.095C288.634 249.324 288.001 253.686 289.886 256.941C290.986 259.003 292.675 260.691 294.737 261.791C298.203 263.346 301.577 262.358 305.057 261.541C309.46 260.581 313.725 259.071 317.75 257.047C319.899 255.927 321.942 254.622 324.09 253.488C326.239 252.355 328.835 251.432 331.195 250.47C333.027 249.719 334.899 249.06 336.784 248.467C339.098 247.697 341.264 246.538 343.189 245.041C347.023 242.289 350.226 238.754 352.587 234.668C355.527 229.397 357.056 224.02 356.041 218.115C355.25 213.542 351.889 211.302 347.842 212.831Z" fill="#C4B0B8"/>
</g>
<g style="mix-blend-mode:multiply" opacity="0.47">
<path fill-rule="evenodd" clip-rule="evenodd" d="M283.125 245.607C281.807 243.854 280.963 244.026 278.854 244.144C277.224 244.32 275.608 244.606 274.017 245.001C266.108 246.662 258.042 247.505 250.186 249.521C245.834 250.478 241.619 251.974 237.638 253.976C233.684 256.111 229.558 258.022 225.67 260.355C216.805 265.864 207.079 269.846 196.896 272.137C190.529 273.455 184.163 274.773 177.77 275.959C173.922 276.67 170.02 277.277 166.184 278.068C162.349 278.858 158.553 279.978 154.704 280.835C147.814 282.242 141.035 284.145 134.419 286.529C127.683 289.072 120.816 291.431 115.544 296.532C112.842 299.167 109.375 302.976 109.388 306.983C109.53 309.809 110.441 312.544 112.024 314.89C117.297 323.615 127.433 328.794 136.238 333.262C148.443 339.456 162.955 340.26 176.307 341.802C193.741 343.683 211.362 342.793 228.517 339.166C236.227 337.598 243.991 336.069 251.728 334.619C261.06 332.867 270.498 331.628 279.803 329.677C287.461 328.056 295.172 326.264 302.698 324.076C306.837 322.934 310.893 321.512 314.838 319.819C318.267 318.171 321.598 316.327 324.816 314.297C327.562 312.784 330.204 311.089 332.724 309.223C334.81 307.413 336.677 305.365 338.287 303.121C341.028 299.589 342.794 295.688 344.982 291.853C346.42 289.15 348.004 286.528 349.727 283.998C351.507 281.56 353.603 279.267 355.54 276.947C359.6 272.058 364.582 267.84 368.378 262.766C370.593 259.814 372.754 256.098 373.058 252.368C373.268 249.825 373.282 247.215 370.619 246.055C368.015 245.048 365.191 244.748 362.434 245.185C359.676 245.724 356.968 246.495 354.341 247.492C349.667 248.837 345.134 250.628 340.804 252.843C329.943 258.668 319.253 265.903 307.022 268.499C301.973 269.58 296.925 270.134 292.075 268.13C288.436 266.738 284.972 264.924 281.754 262.727C277.536 259.683 278.815 256.071 280.66 251.907C281.451 250.062 283.744 246.068 283.125 245.607Z" fill="#C4B0B8"/>
</g>
<g style="mix-blend-mode:multiply" opacity="0.47">
<path fill-rule="evenodd" clip-rule="evenodd" d="M517.69 188.989C517.658 193.433 517.301 197.869 516.623 202.261C516.346 204.225 516.016 206.215 515.713 208.139C515.305 210.775 514.053 213.094 513.433 215.69C512.326 220.343 510.112 224.375 508.161 228.685C506.21 232.995 504.892 237.713 502.888 242.141C497.432 254.688 494.176 267.985 488.851 280.572C486.215 286.805 483.816 293.25 480.942 299.352C478.306 304.848 475.182 310.106 472.454 315.536C471.426 317.566 468.618 321.308 470.754 323.443C472.454 325.13 475.551 323.575 477.344 322.613C484.514 318.778 487.559 309.698 491.975 303.332C494.215 300.116 497.656 297.691 499.989 294.502C503.033 290.337 506.645 285.369 508.648 280.664C512.814 270.924 515.371 260.829 518.982 250.892C521.974 242.681 522.422 234.721 522.422 226.102C522.422 222.491 522.831 218.867 521.737 215.414C520.735 212.158 519.944 206.768 517.69 188.989Z" fill="#C4B0B8"/>
</g>
<g style="mix-blend-mode:multiply" opacity="0.47">
<path fill-rule="evenodd" clip-rule="evenodd" d="M504.378 201.352C501.347 204.264 495.152 211.42 498.104 216.178C499.725 218.814 504.444 217.654 506.105 215.414C507.528 213.49 507.225 210.274 507.225 208.02C507.225 206.781 507.634 204.923 507.225 203.803C506.817 202.683 505.643 202.485 505.393 201.352H504.378Z" fill="#C4B0B8"/>
</g>
<g style="mix-blend-mode:multiply" opacity="0.47">
<path fill-rule="evenodd" clip-rule="evenodd" d="M446.33 339.351C442.454 341.647 438.733 344.196 435.192 346.981C431.801 349.265 428.215 351.246 424.476 352.899C415.046 357.383 405.031 360.516 394.727 362.203C381.546 364.51 367.996 366.263 355.184 370.493C345.457 373.696 335.822 377.083 326.186 380.522C317.092 383.738 306.758 386.045 298.665 391.488C296.675 392.805 293.999 394.901 294.711 397.59C295.844 401.886 304.662 402.057 307.799 402.189C317.263 402.584 326.859 402.189 336.336 402.189C340.883 402.189 345.444 401.939 349.978 402.387C355.623 402.947 361.31 402.947 366.955 402.387C374.059 401.754 381.454 401.899 388.334 399.751C401.515 395.52 414.603 390.525 427.508 385.478C439.08 380.905 455.873 371.455 454.858 356.998C454.423 350.738 450.548 341.987 446.33 339.351Z" fill="#C4B0B8"/>
</g>
<g style="mix-blend-mode:multiply" opacity="0.47">
<path fill-rule="evenodd" clip-rule="evenodd" d="M465.363 350.738C463.438 346.784 462.924 345.743 465.007 342.092C466.325 339.773 470.279 336.359 473.232 336.346C479.123 336.346 479.308 343.094 477.99 347.192C476.83 350.777 475.354 356.233 471.07 356.418C470.397 356.52 469.71 356.468 469.059 356.268C468.409 356.067 467.812 355.722 467.313 355.258C465.916 354.23 463.992 350.948 462.502 350.698L465.363 350.738Z" fill="#C4B0B8"/>
</g>
<g style="mix-blend-mode:multiply" opacity="0.47">
<path fill-rule="evenodd" clip-rule="evenodd" d="M50.5225 362.151C49.4549 366.632 48.809 370.717 50.997 375.027C54.0154 381.023 60.6849 385.043 66.814 386.98C70.6716 388.105 74.6596 388.721 78.6767 388.812C83.1714 389.023 87.6529 389.722 92.1476 389.801C98.8759 389.884 105.591 390.416 112.248 391.395C115.952 391.936 119.537 393.016 123.228 393.464C126.099 393.772 128.95 394.238 131.769 394.861C137.78 396.258 143.764 396.298 149.827 397.141C156.257 397.896 162.762 397.745 169.15 396.693C174.699 395.863 180.578 395.125 183.214 389.761C185.283 385.544 183.767 383.277 180.077 380.404C176.795 377.847 171.285 376.74 167.436 375.475C161.545 373.524 155.692 371.719 149.642 370.203C141.207 368.16 133.087 365.156 124.744 362.691C107.609 357.643 91.1722 350.606 73.2462 348.985C65.8254 348.299 57.047 348.22 50.193 351.621C47.9861 352.814 46.3036 354.788 45.4742 357.156C43.998 360.727 45.7774 362.876 50.5225 362.151Z" fill="#C4B0B8"/>
</g>
<g style="mix-blend-mode:multiply" opacity="0.47">
<path fill-rule="evenodd" clip-rule="evenodd" d="M49.5205 330.758C50.5091 333.895 50.3113 334.87 53.2111 335.753C55.0751 336.523 57.1264 336.72 59.103 336.319C61.5546 335.608 64.4808 333.802 64.7971 331.232C65.153 328.372 62.6222 326.251 60.2892 324.999C55.61 322.495 51.8403 322.692 49.5205 327.898V330.758Z" fill="#C4B0B8"/>
</g>
<g style="mix-blend-mode:multiply" opacity="0.47">
<path fill-rule="evenodd" clip-rule="evenodd" d="M250.304 120.484C250.189 118.779 250.54 117.076 251.319 115.555C252.254 113.429 253.346 111.376 254.588 109.414C255.498 108.096 256.077 106.633 256.934 105.262C258.147 103.325 259.386 101.559 260.427 99.5158C261.922 96.968 263.69 94.5906 265.7 92.4254C266.982 90.9645 268.096 89.3641 269.021 87.6545C269.772 86.2312 270.906 85.1241 271.657 83.7008C272.659 81.9611 273.331 79.9183 274.293 78.0996C275.237 76.1331 276.302 74.2272 277.483 72.393C278.243 70.9944 279.222 69.7263 280.383 68.637C281.251 67.7595 282.2 66.9653 283.217 66.2647C285.51 65.2631 286.683 66.0538 287.87 68.1757C289.708 71.9137 290.552 76.0623 290.321 80.2215C290.141 84.5339 289.347 88.7985 287.962 92.8867C286.838 95.7281 285.452 98.4591 283.823 101.045C281.016 105.987 277.655 110.56 274.373 115.199C272.435 117.941 269.166 120.207 266.464 122.276C264.81 123.577 262.935 124.568 260.928 125.202C259.795 125.571 258.213 126.349 256.974 126.098C255.823 125.742 254.699 125.302 253.613 124.78C250.871 123.766 249.553 121.407 250.304 120.484Z" fill="#C4B0B8"/>
</g>
<g style="mix-blend-mode:multiply" opacity="0.47">
<path fill-rule="evenodd" clip-rule="evenodd" d="M239.839 124.293C238.191 125.123 236.464 125.703 235.766 127.509C235.568 127.996 235.252 129.037 235.594 129.551C236.912 131.462 241.447 128.906 242.475 127.878C243.503 126.85 244.637 124.965 243.648 123.607C243.42 123.333 243.139 123.107 242.821 122.944C242.503 122.781 242.156 122.684 241.8 122.659C241.444 122.635 241.086 122.683 240.749 122.8C240.412 122.918 240.102 123.103 239.839 123.344V124.293Z" fill="#C4B0B8"/>
</g>
<g style="mix-blend-mode:multiply" opacity="0.47">
<path fill-rule="evenodd" clip-rule="evenodd" d="M324.051 56.2617C322.944 56.7434 321.931 57.4171 321.059 58.2518C320.651 59.009 320.341 59.815 320.136 60.6504C319.018 63.6627 318.275 66.8008 317.922 69.9944C317.606 73.1311 317.513 78.6795 321.178 79.9711C328.295 82.4751 338.695 77.3353 339.275 69.3619C339.604 64.8282 337.14 60.6109 334.49 57.1579C333.195 55.3207 331.671 53.6556 329.956 52.2025C329.36 51.732 328.678 51.3838 327.947 51.178C327.216 50.9722 326.452 50.9128 325.699 51.0032C323.234 51.504 321.362 53.9554 324.051 56.2617Z" fill="#C4B0B8"/>
</g>
<g style="mix-blend-mode:multiply" opacity="0.47">
<path fill-rule="evenodd" clip-rule="evenodd" d="M322.614 95.2722C322.614 93.717 322.614 93.3348 323.642 92.32C324.295 91.5948 325.083 91.0039 325.962 90.5804C327.649 90.0269 328.743 91.2789 328.822 92.8736C328.888 94.0861 328.941 96.5506 327.847 97.394C326.753 98.2375 322.324 97.4731 322.575 95.7466L322.614 95.2722Z" fill="#C4B0B8"/>
</g>
<g style="mix-blend-mode:multiply" opacity="0.47">
<path fill-rule="evenodd" clip-rule="evenodd" d="M374.481 62.9171C373.756 65.8824 373.862 68.94 373.295 71.9712C372.389 76.9378 371.843 81.9634 371.66 87.0087C371.568 89.6445 371.66 92.1881 371.529 94.7844C371.179 97.961 371.074 101.16 371.212 104.353C371.634 108.478 372.095 112.814 374.837 116.108C376.788 118.454 379.516 117.598 382.086 116.649C384.135 115.651 386.064 114.421 387.833 112.985C389.273 112.042 390.632 110.98 391.893 109.809C397.574 104.537 402.688 98.725 404.968 91.0942C406.616 85.5458 408.237 79.233 406.88 73.5132C406.149 69.8541 404.503 66.4398 402.095 63.5893C400.198 61.5167 397.926 59.8219 395.399 58.5943C393.303 57.4741 391.036 57.3818 388.809 56.8547C386.94 56.4361 385.03 56.2328 383.115 56.2484C381.344 56.2564 379.579 56.4329 377.842 56.7756C374.112 57.4741 373.189 62.4295 374.481 62.9171Z" fill="#C4B0B8"/>
</g>
<g style="mix-blend-mode:multiply" opacity="0.47">
<path fill-rule="evenodd" clip-rule="evenodd" d="M380.188 124.767C380.847 122.698 382.337 120.563 384.775 121.696C385.642 122.089 386.322 122.805 386.669 123.691C387.016 124.577 387.003 125.564 386.633 126.441C386.293 127.087 385.74 127.597 385.068 127.885C384.396 128.173 383.646 128.222 382.943 128.022C382.022 127.638 381.224 127.009 380.636 126.204C379.779 125.057 380.478 124.161 380.636 122.856L380.188 124.767Z" fill="#C4B0B8"/>
</g>
<g style="mix-blend-mode:multiply" opacity="0.47">
<path fill-rule="evenodd" clip-rule="evenodd" d="M386.858 175.665C384.974 175.843 383.116 176.236 381.322 176.838C381.153 177.26 380.917 177.652 380.623 177.998C380.241 178.499 379.107 179.158 379.305 179.883C381.704 180.897 385.131 179.276 387.214 178.156C388.311 177.623 389.334 176.949 390.258 176.153C390.853 175.63 391.395 175.052 391.88 174.426C392.644 173.043 391.88 172.318 390.469 172.331C389.059 172.344 385.606 173.438 385.474 175.191L386.858 175.665Z" fill="#C4B0B8"/>
</g>
<g style="mix-blend-mode:multiply" opacity="0.47">
<path fill-rule="evenodd" clip-rule="evenodd" d="M465.837 167.586C465.887 169.203 465.519 170.805 464.77 172.239C464.098 173.939 463.149 175.955 463.452 177.853C464.111 182.347 470.319 181.451 473.482 181.042C477.199 180.555 480.732 179.724 483.513 177.089C485.559 175.392 486.868 172.969 487.164 170.328C487.823 165.557 488.93 157.491 481.892 157.583C478.964 157.78 476.155 158.814 473.799 160.562C472.179 161.705 470.751 163.097 469.568 164.687C467.933 166.598 466.127 168.193 465.837 167.586Z" fill="#C4B0B8"/>
</g>
<g style="mix-blend-mode:multiply" opacity="0.47">
<path fill-rule="evenodd" clip-rule="evenodd" d="M416.356 426.333C418.413 419.665 421.629 413.998 427.732 410.215C429.155 409.332 430.368 408.186 432.068 409.069C433.465 409.807 433.202 411.428 432.767 412.812C431.928 414.954 430.729 416.938 429.221 418.676C427.792 420.289 426.274 421.82 424.674 423.263C423.769 424.252 422.625 424.991 421.352 425.411C419.65 425.47 417.967 425.781 416.356 426.333Z" fill="#C4B0B8"/>
</g>
<g style="mix-blend-mode:multiply" opacity="0.47">
<path fill-rule="evenodd" clip-rule="evenodd" d="M174.172 433.99C174.291 431.434 175.767 430.234 177.783 428.547C182.281 425.061 187.403 422.466 192.875 420.904C197.542 419.441 203.104 418.413 207.941 419.744C210.103 420.35 212.805 421.391 213.728 423.605C215.309 427.427 211.197 433.055 208.152 435.163C204.316 437.799 198.767 438.616 194.378 439.947C190.283 441.17 185.98 441.533 181.738 441.015C180.211 440.927 178.701 440.648 177.243 440.185C175.86 439.843 174.496 439.43 173.157 438.946C171.971 438.313 170.429 437.325 170.323 435.915C170.289 435.068 170.489 434.229 170.903 433.49C171.654 432.277 173.236 432.119 174.172 433.99Z" fill="#C4B0B8"/>
</g>
</g>
<g style="mix-blend-mode:soft-light">
<g style="mix-blend-mode:soft-light">
<path fill-rule="evenodd" clip-rule="evenodd" d="M458.943 150.401C457.388 151.442 454.435 152.918 454.989 155.264C455.337 156.309 455.742 157.334 456.202 158.335C456.495 159.26 456.685 160.215 456.769 161.181C456.937 162.77 457.544 164.28 458.522 165.544C459.233 166.321 459.985 165.544 460.472 164.793C461.077 164.033 461.46 163.121 461.58 162.157C461.598 160.915 461.744 159.679 462.014 158.467C462.146 157.992 462.502 157.57 462.608 157.149C462.719 156.478 462.746 155.796 462.687 155.119C462.644 154.037 462.259 152.997 461.586 152.149C460.913 151.3 459.987 150.688 458.943 150.401Z" fill="#C4B0FF"/>
</g>
<g style="mix-blend-mode:soft-light">
<path fill-rule="evenodd" clip-rule="evenodd" d="M434.084 284.209C433.808 284.354 433.478 284.459 433.333 284.749C433.267 284.909 433.227 285.078 433.214 285.25C433.149 286.001 434.19 286.331 434.704 286.476C435.451 286.715 436.24 286.796 437.021 286.715C437.801 286.633 438.556 286.39 439.238 286.001C439.742 285.695 440.177 285.287 440.515 284.804C440.853 284.321 441.087 283.773 441.202 283.194C441.203 282.472 441.001 281.764 440.619 281.151C440.237 280.538 439.69 280.045 439.04 279.728C438.497 279.331 437.857 279.087 437.188 279.02C436.518 278.952 435.843 279.065 435.231 279.346C434.783 279.611 434.431 280.013 434.229 280.493C434.084 280.888 434.111 281.31 433.992 281.705C433.873 282.1 433.478 282.628 433.557 283.207C433.612 283.592 433.798 283.946 434.084 284.209Z" fill="#C4B0FF"/>
</g>
<g style="mix-blend-mode:soft-light">
<path fill-rule="evenodd" clip-rule="evenodd" d="M442.56 286.753C442.552 286.596 442.585 286.441 442.657 286.302C442.729 286.163 442.836 286.046 442.968 285.962C443.076 285.838 443.225 285.757 443.387 285.735C443.55 285.713 443.715 285.752 443.851 285.843C443.973 285.933 444.075 286.046 444.153 286.175C444.231 286.305 444.282 286.448 444.304 286.598C444.326 286.747 444.319 286.9 444.282 287.046C444.245 287.192 444.179 287.33 444.089 287.451C443.949 287.594 443.776 287.7 443.585 287.76C443.394 287.82 443.191 287.831 442.995 287.794C442.786 287.734 442.604 287.605 442.48 287.427C442.355 287.25 442.295 287.035 442.309 286.819L442.56 286.753Z" fill="#C4B0FF"/>
</g>
<g style="mix-blend-mode:soft-light">
<path fill-rule="evenodd" clip-rule="evenodd" d="M463.399 255.109C462.889 255.153 462.416 255.394 462.081 255.782C461.96 255.875 461.865 255.998 461.805 256.139C461.745 256.28 461.722 256.433 461.738 256.586C461.883 257.551 462.381 258.429 463.135 259.05C463.379 259.237 463.663 259.365 463.965 259.424C464.267 259.484 464.578 259.473 464.875 259.393C465.412 259.154 465.906 258.829 466.338 258.431C466.75 258.136 467.141 257.814 467.511 257.469C467.883 257.226 468.177 256.883 468.359 256.479C468.541 256.075 468.604 255.627 468.539 255.189C468.442 254.755 468.231 254.355 467.927 254.031C467.624 253.706 467.239 253.469 466.813 253.343C466.233 253.238 465.636 253.292 465.086 253.502C464.401 253.686 463.913 253.686 463.399 255.109Z" fill="#C4B0FF"/>
</g>
<g style="mix-blend-mode:soft-light">
<path fill-rule="evenodd" clip-rule="evenodd" d="M459.51 257.89C459.929 258.045 460.308 258.292 460.617 258.615C460.538 258.826 460.749 259.01 460.617 259.235C460.485 259.459 459.892 259.314 459.655 259.235C459.33 259.116 459.065 258.875 458.917 258.562C458.917 258.444 458.627 257.93 458.917 257.983L459.51 257.89Z" fill="#C4B0FF"/>
</g>
<g style="mix-blend-mode:soft-light">
<path fill-rule="evenodd" clip-rule="evenodd" d="M413.219 275.023C412.797 275.498 412.323 276.012 412.626 276.75C412.799 277.026 413.056 277.24 413.36 277.359C413.664 277.478 413.998 277.495 414.313 277.409C414.643 277.409 415.012 277.277 415.157 276.921C415.302 276.565 415.354 276.13 415.473 275.761C415.75 274.865 416.791 274.443 416.264 273.376C416.146 273.138 415.976 272.93 415.766 272.767C415.556 272.605 415.311 272.493 415.051 272.44C414.194 272.44 413.522 273.231 413.021 273.929L413.219 275.023Z" fill="#C4B0FF"/>
</g>
<g style="mix-blend-mode:soft-light">
<path fill-rule="evenodd" clip-rule="evenodd" d="M287.646 364.483C287.909 363.917 288.225 362.876 289.201 362.52C289.79 362.314 290.431 362.314 291.02 362.52C292.483 362.757 293.933 363.218 292.971 364.668C292.287 365.455 291.358 365.989 290.334 366.184C289.464 366.329 287.856 366.052 287.935 365.314L287.646 364.483Z" fill="#C4B0FF"/>
</g>
<g style="mix-blend-mode:soft-light">
<path fill-rule="evenodd" clip-rule="evenodd" d="M376.089 57.1842C375.759 58.5021 375.311 60.1495 376.813 61.138C377.842 61.7706 379.45 61.138 380.306 60.4395C381.782 59.0985 382.789 57.3203 383.18 55.3655C383.404 53.639 381.321 51.7939 379.74 51.5963C376.51 51.2009 374.784 56.3276 374.599 58.7394L376.089 57.1842Z" fill="#C4B0FF"/>
</g>
<g style="mix-blend-mode:soft-light">
<path fill-rule="evenodd" clip-rule="evenodd" d="M368.892 347.93C367.906 349.435 367.529 351.258 367.837 353.031C367.969 354.098 367.982 355.535 369.379 355.891C372.675 356.721 376.089 350.619 376.972 348.603C377.737 347.02 378.095 345.271 378.013 343.515C377.921 342.553 377.209 340.669 376.062 340.273C375.26 340.126 374.433 340.189 373.662 340.454C372.891 340.72 372.202 341.179 371.66 341.789C369.182 344.267 369.366 347.127 368.022 349.802L368.892 347.93Z" fill="#C4B0FF"/>
</g>
<g style="mix-blend-mode:soft-light">
<path fill-rule="evenodd" clip-rule="evenodd" d="M367.165 347.706C366.305 347.833 365.46 348.054 364.648 348.365C364.239 348.603 363.593 348.972 363.448 349.354C363.303 349.736 363.607 350.329 364.002 350.672C364.171 350.794 364.367 350.875 364.573 350.907C364.779 350.939 364.99 350.922 365.188 350.856C365.51 350.666 365.795 350.421 366.032 350.131C366.41 349.727 366.746 349.286 367.034 348.813C367.202 348.608 367.343 348.382 367.455 348.141C367.574 347.772 367.297 347.68 367.218 347.403L367.165 347.706Z" fill="#C4B0FF"/>
</g>
<g style="mix-blend-mode:soft-light">
<path fill-rule="evenodd" clip-rule="evenodd" d="M363.396 362.335L364.503 362.665C364.384 363.034 364.503 363.442 364.028 363.719C363.562 363.914 363.053 363.982 362.552 363.917C362.064 363.811 361.787 363.535 361.853 363.113C361.919 362.691 362.526 362.375 363.092 362.23L363.396 362.335Z" fill="#C4B0FF"/>
</g>
<g style="mix-blend-mode:soft-light">
<path fill-rule="evenodd" clip-rule="evenodd" d="M307.614 374.645C307.614 375.04 307.614 375.317 308.062 375.488C308.441 375.606 308.844 375.624 309.232 375.541C309.62 375.458 309.98 375.276 310.277 375.014C311.081 374.262 311.793 372.879 311.292 372.127C311.008 371.838 310.632 371.655 310.229 371.609C309.826 371.563 309.419 371.658 309.077 371.877C308.677 372.16 308.306 372.482 307.97 372.839C307.789 373.082 307.662 373.36 307.596 373.655C307.53 373.95 307.527 374.256 307.588 374.552L307.614 374.645Z" fill="#C4B0FF"/>
</g>
<g style="mix-blend-mode:soft-light">
<path fill-rule="evenodd" clip-rule="evenodd" d="M248.959 279.61C248.564 279.965 248.366 280.084 248.274 280.585C248.194 280.853 248.167 281.134 248.197 281.413C248.226 281.691 248.311 281.961 248.445 282.206C249.306 283.226 250.494 283.915 251.807 284.156C252.268 284.289 252.754 284.311 253.225 284.222C253.697 284.133 254.141 283.934 254.522 283.642C254.993 283.335 255.394 282.93 255.696 282.454C255.998 281.979 256.196 281.445 256.275 280.888C256.417 280.345 256.382 279.772 256.176 279.25C255.97 278.729 255.603 278.287 255.128 277.988C254.223 277.295 253.18 276.801 252.07 276.539C251.642 276.462 251.203 276.489 250.787 276.617C250.372 276.746 249.994 276.972 249.684 277.277C249.025 277.83 248.155 278.832 248.959 279.61Z" fill="#C4B0FF"/>
</g>
<g style="mix-blend-mode:soft-light">
<path fill-rule="evenodd" clip-rule="evenodd" d="M257.606 283.471C257.606 283.155 257.606 282.773 257.923 282.68C258.213 282.676 258.501 282.729 258.771 282.838C259.04 282.947 259.285 283.108 259.491 283.313C259.781 283.65 259.94 284.081 259.939 284.525C259.844 284.82 259.648 285.072 259.386 285.237C259.206 285.394 258.98 285.488 258.742 285.505C258.504 285.521 258.267 285.46 258.068 285.329C257.791 285.158 257.119 284.802 257.224 284.394L257.606 283.471Z" fill="#C4B0FF"/>
</g>
<g style="mix-blend-mode:soft-light">
<path fill-rule="evenodd" clip-rule="evenodd" d="M92.1473 249.732C89.6728 246.371 88.4596 242.247 88.7203 238.082C88.8125 236.303 88.6149 233.087 91.1456 233.337C94.5462 233.667 96.2861 238.939 97.2351 241.574C98.6455 245.528 100.016 249.482 99.5154 253.712C98.83 259.498 91.2115 247.979 90.4601 246.912L92.1473 249.732Z" fill="#C4B0FF"/>
</g>
<g style="mix-blend-mode:soft-light">
<path fill-rule="evenodd" clip-rule="evenodd" d="M99.4759 230.609C98.8696 233.97 100.372 238.741 104.01 239.835C105.328 240.217 105.789 239.413 106.475 238.187C106.863 237.615 107.121 236.964 107.23 236.281C107.339 235.598 107.298 234.899 107.108 234.234C106.689 233.338 106.162 232.497 105.539 231.73C105.181 231.292 104.867 230.82 104.603 230.319C104.353 229.779 104.445 229.357 104.023 228.883C103.008 227.736 99.0804 226.801 99.4759 229.476V230.609Z" fill="#C4B0FF"/>
</g>
<g style="mix-blend-mode:soft-light">
<path fill-rule="evenodd" clip-rule="evenodd" d="M136.541 468.955C137.34 466.825 138.794 465.003 140.692 463.749C142.862 462.287 145.271 461.217 147.81 460.586C150.214 460.032 152.729 460.225 155.02 461.14C157.248 462.326 159.225 464.092 161.334 465.462C163.245 466.714 165.169 467.413 166.843 469.074C168.341 470.611 169.495 472.448 170.231 474.464C171.391 477.521 172.234 482.213 170.929 485.323C169.743 488.157 168.069 488.197 165.235 488.144C161.281 488.078 157.419 484.836 154.915 481.936C153.793 480.416 152.526 479.008 151.132 477.732C149.326 476.309 147.441 474.991 145.543 473.699C143.682 472.671 141.882 471.535 140.152 470.299C139.427 469.667 137.081 467.874 136.541 468.955Z" fill="#C4B0FF"/>
</g>
<g style="mix-blend-mode:soft-light">
<path fill-rule="evenodd" clip-rule="evenodd" d="M205.054 289.27C204.804 290.72 204.435 291.352 205.502 292.064C205.831 292.299 206.225 292.425 206.629 292.425C207.034 292.425 207.428 292.299 207.756 292.064C208.56 291.589 210.393 289.876 210.116 288.861C209.641 286.739 204.316 286.66 204.593 289.23L205.054 289.27Z" fill="#C4B0FF"/>
</g>
<g style="mix-blend-mode:soft-light">
<path fill-rule="evenodd" clip-rule="evenodd" d="M304.82 357.34C303.963 353.387 307.996 347.627 312.557 344.398C319.055 339.786 328.928 338.784 336.203 339.759C342.306 340.563 347.315 343.792 348.541 348.168C348.87 349.341 348.646 350.566 348.923 351.739C349.147 352.635 349.384 353.149 348.066 353.901C344.784 355.759 339.591 356.905 335.9 357.512C331.788 358.327 327.61 358.769 323.418 358.83C319.885 358.751 316.511 358.237 312.979 358.105C311.295 358.111 309.614 357.965 307.957 357.67C307.126 357.512 305.057 357.802 304.82 357.34Z" fill="#C4B0FF"/>
</g>
<g style="mix-blend-mode:soft-light">
<path fill-rule="evenodd" clip-rule="evenodd" d="M338.286 332.972C338.892 333.723 338.919 334.158 340.118 334.29C341.053 334.283 341.966 334.014 342.754 333.512C343.717 332.959 345.048 331.641 344.573 330.877C343.73 329.44 337.983 330.297 338.576 332.195L338.286 332.972Z" fill="#C4B0FF"/>
</g>
<g style="mix-blend-mode:soft-light">
<path fill-rule="evenodd" clip-rule="evenodd" d="M428.575 256.533C428.754 255.445 429.153 254.404 429.748 253.475C430.027 253.292 430.34 253.166 430.668 253.105C430.996 253.044 431.333 253.049 431.659 253.119C432.261 253.156 432.846 253.332 433.367 253.634C433.889 253.936 434.333 254.355 434.664 254.859C435.239 255.401 435.689 256.063 435.982 256.796C436.892 260.948 429.576 259.155 428.614 256.533H428.575Z" fill="#C4B0FF"/>
</g>
</g>
<path style="mix-blend-mode:screen" d="M454.916 528.005C513.733 490.351 546.665 436.794 528.472 408.382C510.278 379.97 447.849 387.462 389.031 425.116C330.214 462.77 297.282 516.327 315.475 544.739C333.669 573.151 396.098 565.659 454.916 528.005Z" fill="url(#paint2_radial_11_938)"/>
</g>
<path d="M582.013 432.573C592.767 431.051 603.597 426.454 614.479 416.869C638.747 395.496 634.117 358.896 615.91 337.106C597.299 314.903 559.522 301.761 514.289 337.817C437.675 398.888 405.796 376.632 405.485 376.386L399.921 383.576C401.398 384.747 436.935 411.107 520.013 344.913C560.095 313.022 592.256 322.944 608.993 342.928C624.459 361.436 628.679 392.313 608.531 410.04C583.525 432.041 558.609 423.591 532.232 414.659C521.621 411.055 510.65 407.337 499.594 405.66C460.111 399.672 435.489 423.22 434.458 424.221L440.814 430.718C448.669 424.072 457.863 419.197 467.772 416.425C477.68 413.653 488.069 413.05 498.232 414.656C508.482 416.199 519.077 419.791 529.324 423.266C546.505 429.127 564.157 435.1 582.013 432.573Z" fill="#CAB3DA"/>
<path fill-rule="evenodd" clip-rule="evenodd" d="M525.546 517.354C525.546 517.354 548.173 537.608 565.317 527.716L525.546 517.354Z" fill="#CAB3DA"/>
<path fill-rule="evenodd" clip-rule="evenodd" d="M212.762 349.467C221.744 366.134 264.83 381.877 286.738 375.52C287.716 375.241 288.678 374.906 289.618 374.519C302.545 369.046 310.458 353.783 314.352 343.862C315.541 340.931 316.554 337.931 317.385 334.878L311.77 290.138C311.77 290.138 311.203 290.329 310.238 290.728C304.498 293.065 299.055 296.078 294.026 299.701C285.701 305.902 255.65 316.545 239.113 315.229C222.576 313.913 216.105 309.627 212.33 310.741C208.555 311.855 206.431 318.779 206.431 318.779C206.431 318.779 203.294 331.904 212.762 349.467Z" fill="url(#paint3_radial_11_938)"/>
<path fill-rule="evenodd" clip-rule="evenodd" d="M206.431 318.779C206.431 318.779 212.84 315.319 216.141 319.143C219.442 322.967 226.63 348.015 212.773 349.452C198.916 350.889 206.444 318.777 206.444 318.777L206.431 318.779Z" fill="#684D73"/>
<path fill-rule="evenodd" clip-rule="evenodd" d="M210.151 319.812C210.151 319.812 214.241 333.21 208.05 345.912C208.05 345.912 198.966 329.991 210.151 319.812Z" fill="#53345F"/>
<path fill-rule="evenodd" clip-rule="evenodd" d="M177.826 323.256C182.858 330.524 189.889 336.176 198.068 339.529C201.652 341.122 205.411 342.29 209.267 343.008C211.914 337.458 212.582 331.17 211.16 325.188C211.16 325.188 210.22 323.61 208.669 321.332C205.198 316.304 199.043 307.82 194.214 305.289L194.784 311.652C194.784 311.652 188.405 303.434 174.662 305.973C174.676 305.971 168.171 308.658 177.826 323.256Z" fill="#D9D9D9"/>
<path d="M256.825 313.632C256.825 313.632 266.401 323.867 270.651 347.551C274.9 371.234 258.878 375.117 258.878 375.117C258.878 375.117 268.962 377.539 275.919 376.968C275.919 376.968 313.16 361.955 271.456 309.767L256.825 313.632Z" fill="url(#paint4_linear_11_938)"/>
<path style="mix-blend-mode:multiply" fill-rule="evenodd" clip-rule="evenodd" d="M314.352 343.862C315.414 347.272 316.712 350.786 318.089 354.469L328.305 328.186L314.352 289.469L310.326 290.274C310.278 290.419 310.256 290.56 310.21 290.718C304.469 293.056 299.027 296.068 293.998 299.691C293.998 299.691 328.114 324.887 289.605 374.424C302.546 369.046 310.458 353.783 314.352 343.862Z" fill="url(#paint5_linear_11_938)"/>
<path fill-rule="evenodd" clip-rule="evenodd" d="M364.587 554.764C364.587 554.764 370.341 539.172 408.128 537.562C408.133 537.603 396.103 557.892 364.587 554.764Z" fill="#311745"/>
<path fill-rule="evenodd" clip-rule="evenodd" d="M528.776 477.199C528.776 477.199 504.806 480.592 496.299 509.393C496.299 509.393 507.31 512.222 519.242 502.737C531.173 493.252 528.776 477.199 528.776 477.199Z" fill="#311745"/>
<path fill-rule="evenodd" clip-rule="evenodd" d="M392.296 559.853L408.717 550.988C408.717 550.988 407.813 546.548 406.628 539.445C403.59 521.495 398.702 486.67 401.71 464.25L332.806 434.458C332.806 434.458 333.125 438.759 333.711 445.534C335.516 465.203 333.93 505.567 340.374 520.578C349.059 540.695 392.296 559.853 392.296 559.853Z" fill="url(#paint6_radial_11_938)"/>
<path fill-rule="evenodd" clip-rule="evenodd" d="M332.802 434.431C351.132 451.197 374.198 461.884 398.84 465.029L401.71 464.25L417.039 460.052C417.035 460.002 417.028 459.952 417.018 459.903L416.974 459.592C416.956 459.511 416.944 459.43 416.939 459.348C416.918 459.245 416.903 459.142 416.895 459.037C416.046 452.065 412.02 408.121 438.469 365.218C434.664 361.887 431.087 358.304 427.762 354.494C427.104 353.746 426.398 352.949 425.645 352.117C422.232 348.281 418.098 343.444 413.202 337.321C402.499 324.099 384.643 302.645 372.346 287.911C368.656 283.479 365.452 279.656 363.088 276.803C362.207 275.741 361.425 274.803 360.783 274.066L358.821 271.708C358.821 271.708 329.132 291.627 310.814 288.356C310.814 288.356 310.612 288.978 310.315 290.193C310.268 290.351 310.247 290.492 310.198 290.637C308.726 296.999 305.691 316.112 314.308 343.744C315.384 347.152 316.668 350.668 318.056 354.335C318.572 355.642 319.089 356.949 319.659 358.248C319.726 380.505 322.948 402.641 329.228 423.994C330.342 427.576 331.518 431.011 332.802 434.431Z" fill="#CAB3DA"/>
<path fill-rule="evenodd" clip-rule="evenodd" d="M375.717 315.913C376.459 316.871 377.258 317.834 378.076 318.836C390.968 334.369 409.533 348.741 427.8 354.572C438.996 358.12 450.037 358.434 459.586 353.853C480.912 343.576 487.791 323.74 489.377 317.983C489.414 317.799 489.462 317.617 489.52 317.438C489.545 317.278 489.583 317.121 489.633 316.967C489.73 316.58 489.771 316.382 489.771 316.382C489.771 316.382 496.295 310.422 492.304 302.597C488.313 294.773 479.172 284.104 479.172 284.104L474.776 284.533C474.776 284.533 471.287 279.383 465.285 280.357C459.282 281.331 447.18 288.439 428.154 286.993C411.42 285.746 385.683 279.386 376.967 276.301C376.051 276.023 375.163 275.659 374.316 275.214C371.356 273.667 368.133 272.686 364.813 272.323L362.422 273.461L360.844 274.209L355.998 276.523C355.998 276.523 354.648 289.505 375.717 315.913Z" fill="url(#paint7_radial_11_938)"/>
<path fill-rule="evenodd" clip-rule="evenodd" d="M417.038 460.052C417.038 460.052 456.896 486.035 466.592 493.218C476.287 500.4 503.049 509.32 516.196 509.294C516.516 509.305 516.838 509.296 517.158 509.269C529.512 508.817 533.407 500.069 533.407 500.069C533.407 500.069 532.734 497.653 531.657 493.846C530.208 488.78 528.044 481.29 525.693 473.841C522.606 463.929 519.209 454.061 516.93 450.244C513.053 443.714 472.075 400.462 450.947 378.312C443.466 370.499 438.482 365.312 438.482 365.312C407.72 396.27 415.571 451.345 416.906 459.118C416.914 459.223 416.929 459.327 416.95 459.429C416.956 459.511 416.968 459.593 416.985 459.673L417.023 459.943C417.03 459.979 417.035 460.015 417.038 460.052Z" fill="url(#paint8_radial_11_938)"/>
<path fill-rule="evenodd" clip-rule="evenodd" d="M353.272 277.64C353.272 277.64 338.871 292.097 332.63 294.995C326.39 297.893 310.86 288.487 310.86 288.487C310.86 288.487 326.499 288.329 353.272 277.64Z" fill="#53345F"/>
<path fill-rule="evenodd" clip-rule="evenodd" d="M364.798 272.311C364.798 272.311 371.961 324.959 418.325 351.774C418.325 351.774 377.206 334.234 353.272 277.64L364.798 272.311Z" fill="#53345F"/>
<path fill-rule="evenodd" clip-rule="evenodd" d="M314.346 289.525C314.346 289.525 312.561 330.138 319.695 358.408C319.695 358.408 304.036 328.199 306.427 292.454L310.86 288.487L314.346 289.525Z" fill="#53345F"/>
<path fill-rule="evenodd" clip-rule="evenodd" d="M446.146 373.252C446.146 373.252 424.72 393.836 423.511 464.254L417.079 460.046C417.079 460.046 404.132 393.632 438.505 365.282L446.146 373.252Z" fill="#53345F"/>
<path fill-rule="evenodd" clip-rule="evenodd" d="M329.299 424.205C329.299 424.205 365.794 462.504 401.695 464.238L401.223 468.61C401.223 468.61 365.193 471.806 333.451 442.328L329.299 424.205Z" fill="#53345F"/>
<path fill-rule="evenodd" clip-rule="evenodd" d="M489.781 316.352C489.781 316.352 496.306 310.392 492.314 302.568C488.323 294.744 479.182 284.075 479.182 284.075L474.786 284.504C474.786 284.504 463.112 307.116 489.781 316.352Z" fill="#684D73"/>
<path fill-rule="evenodd" clip-rule="evenodd" d="M490.823 308.699C490.823 308.699 474.542 297.205 479.136 284.136C479.182 284.075 495.456 302.441 490.823 308.699Z" fill="#53345F"/>
<path fill-rule="evenodd" clip-rule="evenodd" d="M479.245 293.297C479.245 293.297 476.758 281.478 485.365 274.244L488.018 279.14C488.018 279.14 497.753 264.377 511.298 268.145C511.298 268.145 516.356 291.589 488.624 307.009C484.046 303.621 480.743 298.791 479.245 293.297Z" fill="#D9D9D9"/>
<path d="M504.774 435.724C504.774 435.724 512.775 451.012 495.066 470.077C477.357 489.141 457.828 487.063 457.828 487.063C457.828 487.063 468.554 495.286 475.637 498.34C482.72 501.394 513.796 483.666 521.641 461.402C521.641 461.402 519.17 452.714 515.85 448.658C512.53 444.603 504.774 435.724 504.774 435.724Z" fill="url(#paint9_linear_11_938)"/>
<path d="M401.07 491.702C401.07 491.702 390.046 508.082 374.495 518.411C365.197 524.57 353.959 527.094 342.921 525.502C342.921 525.502 350.355 535.419 358.388 540.216C358.388 540.216 378.406 536.002 387.843 528.002C397.28 520.001 402.262 507.333 402.262 507.333L401.07 491.702Z" fill="url(#paint10_linear_11_938)"/>
<path d="M423.203 286.521C423.203 286.521 400.964 327.973 444.94 357.223C439.526 357.44 434.119 356.653 428.992 354.9C416.957 351.084 380.356 305.211 409.789 284.266L423.203 286.521Z" fill="url(#paint11_linear_11_938)"/>
<path d="M401.449 464.549L401.948 463.982C401.649 463.72 372.158 437.373 359.929 414.736C349.339 395.096 347.049 383.885 343.884 368.355C342.694 362.48 341.338 355.828 339.343 347.969C335.067 331.067 332.034 313.875 330.268 296.53L329.51 296.638C331.291 314.022 334.335 331.253 338.616 348.196C340.594 356.029 341.95 362.682 343.152 368.541C346.326 384.139 348.618 395.364 359.268 415.133C371.56 437.83 401.078 464.27 401.449 464.549Z" fill="#53345F"/>
<path style="mix-blend-mode:multiply" fill-rule="evenodd" clip-rule="evenodd" d="M405.296 540.171L406.574 539.452C403.536 521.503 398.648 486.678 401.656 464.257L417.039 460.052C417.039 460.052 456.896 486.035 466.606 493.216C476.315 500.396 503.05 509.32 516.196 509.294C516.517 509.3 516.837 509.286 517.156 509.255L531.648 493.778C530.215 488.724 528.037 481.236 525.699 473.785L524.128 473.607C524.128 473.607 510.159 496.282 490.111 497.947C470.064 499.612 429.865 458.057 429.086 449.433C426.192 417.195 441.889 390.647 450.944 378.285L438.477 365.272C434.672 361.941 431.095 358.358 427.769 354.549C438.965 358.097 450.007 358.41 459.567 353.814C480.88 343.539 487.76 323.717 489.344 317.946C487.452 324.078 478.545 346.74 445.727 353.717C439.03 355.096 432.078 354.539 425.686 352.111C397.188 341.947 375.807 301.15 373.178 292.126C372.775 290.767 372.513 289.371 372.395 287.959C371.777 279.892 376.936 276.277 376.936 276.277C376.035 275.996 375.158 275.64 374.316 275.213C371.356 273.667 368.133 272.686 364.814 272.322L362.422 273.461C362.614 274.331 362.839 275.527 363.15 276.946C366.075 290.32 370.289 303.378 375.734 315.938C379.926 325.815 385.442 335.075 392.132 343.463C414.566 370.547 421.159 374.623 421.159 374.623C421.159 374.623 414.629 425.966 402.948 440.148C391.268 454.331 351.047 440.596 340.184 432.378C335.014 428.515 331.544 425.833 329.274 424.126C330.34 427.563 331.503 430.999 332.8 434.417C332.8 434.417 333.119 438.718 333.706 445.493C344.598 454.203 381.604 484.509 389.746 497.776C399.3 513.409 405.296 540.171 405.296 540.171Z" fill="url(#paint12_linear_11_938)"/>
<g style="mix-blend-mode:multiply" opacity="0.5">
<path fill-rule="evenodd" clip-rule="evenodd" d="M364.796 272.297C364.796 272.297 362.09 301.919 338.194 322.895C314.298 343.87 299.139 296.245 299.139 296.245L306.426 292.454L310.361 290.324L364.796 272.297Z" fill="#53345F"/>
</g>
<path fill-rule="evenodd" clip-rule="evenodd" d="M224.484 267.93C224.719 268.227 224.939 268.514 225.199 268.794C228.5 272.618 234.214 276.528 241.442 279.921C241.442 279.921 241.873 280.136 242.691 280.461C258.519 287.381 275.693 290.678 292.959 290.111C322.974 288.966 365.895 278.406 390.347 253.654C414.799 228.902 415.384 168.7 404.508 151.529C400.774 145.546 396.675 139.799 392.234 134.321C377.834 116.614 354.348 95.9437 320.465 94.034C294.857 92.5813 262.289 101.427 238.395 113.254C231.596 116.536 225.124 120.456 219.065 124.96C215.823 127.367 212.863 130.133 210.242 133.204L209.334 134.395C208.73 135.173 208.182 135.993 207.695 136.849C182.507 181.064 208.429 247.214 224.484 267.93Z" fill="url(#paint13_linear_11_938)"/>
<path d="M227.891 262.949C228.122 263.22 228.313 263.496 228.556 263.752C235.963 269.188 260.665 282.567 296.626 268.356C340.848 250.892 340.986 210.54 340.986 210.54L349.706 207.705C348.625 201.924 347.896 196.577 347.433 191.648C344.792 164.025 350.433 149.676 349.568 145.811C348.556 141.194 333.727 116.566 298.852 110.671C275.742 106.781 255.196 112.049 240.934 117.931C234.556 121.004 228.487 124.682 222.812 128.913C219.764 131.159 216.986 133.752 214.537 136.639L213.687 137.753C213.117 138.484 212.604 139.258 212.152 140.068C202.336 157.284 200.801 178.019 203.418 197.78C207.097 225.615 219.077 251.571 227.891 262.949Z" fill="url(#paint14_linear_11_938)"/>
<path style="mix-blend-mode:multiply" fill-rule="evenodd" clip-rule="evenodd" d="M242.692 280.461C258.52 287.381 275.694 290.678 292.959 290.111C322.974 288.966 365.896 278.406 390.347 253.654C414.799 228.902 415.384 168.7 404.509 151.529C400.775 145.546 396.676 139.799 392.235 134.321C387.629 131.027 382.431 129.5 376.601 131.594C355.213 139.286 361.827 211.84 361.827 211.84L350.924 212.803C350.924 212.803 351.151 255.049 309.927 276.242C273.916 294.779 248.441 282.766 242.692 280.461Z" fill="url(#paint15_linear_11_938)"/>
<path fill-rule="evenodd" clip-rule="evenodd" d="M400.449 238.95C391.399 250.069 371.576 249.426 363.227 213.159C354.879 176.892 369.526 137.757 369.526 137.757C339.691 146.119 354.356 209.075 354.356 209.075C355.389 211.688 356.379 214.101 357.402 216.357L357.506 216.604C378.893 264.465 398.75 241.081 400.449 238.95Z" fill="url(#paint16_linear_11_938)"/>
<path fill-rule="evenodd" clip-rule="evenodd" d="M406.915 156.542C401.7 144.558 392.488 137.376 385.372 138.77C378.256 140.164 364.495 175.324 374.607 210.886C384.718 246.448 405.804 230.962 408.135 216.433L409.606 208.498C409.606 208.498 395.828 234.278 383.027 213.64C368.41 190.114 383.858 154.397 395.367 156.935C406.875 159.473 411.03 179.858 411.03 179.858C411.03 179.858 410.387 164.495 406.915 156.542Z" fill="#53345F"/>
<path fill-rule="evenodd" clip-rule="evenodd" d="M413.506 554.504L410.144 550.247L408.201 537.593C408.201 537.593 383.835 553.985 364.646 554.798C372.464 559.778 381.487 562.54 390.753 562.789C390.753 562.789 376.998 572.16 380.278 587.922L413.506 554.504Z" fill="#D9D9D9"/>
<path fill-rule="evenodd" clip-rule="evenodd" d="M496.387 509.339L522.975 512.64L525.556 517.421C525.556 517.421 543.269 531.72 565.325 527.77C565.325 527.77 558.823 509.718 536.142 503.794L528.795 477.237C527.563 485.077 524.332 492.468 519.414 498.697C511.6 508.51 497.622 509.288 496.387 509.339Z" fill="#D9D9D9"/>
<path fill-rule="evenodd" clip-rule="evenodd" d="M413.506 554.504L416.441 556.324L382.093 590.122L380.231 587.888L413.506 554.504Z" fill="#CAB3DA"/>
<path style="mix-blend-mode:multiply" fill-rule="evenodd" clip-rule="evenodd" d="M364.587 554.765C372.404 559.745 381.427 562.507 390.693 562.756C390.693 562.756 406.223 555.494 413.506 554.504L410.144 550.247L408.201 537.593C408.201 537.593 383.779 553.98 364.587 554.765Z" fill="url(#paint17_linear_11_938)"/>
<path style="mix-blend-mode:multiply" fill-rule="evenodd" clip-rule="evenodd" d="M496.388 509.339L522.975 512.64C528.007 510.783 532.521 507.75 536.142 503.794L528.795 477.237C527.563 485.077 524.332 492.468 519.415 498.697C511.6 508.51 497.622 509.288 496.388 509.339Z" fill="url(#paint18_linear_11_938)"/>
<path d="M333.909 147.973C333.909 147.973 331.999 137.204 330.351 134.14C325.131 131.09 319.363 129.093 313.375 128.264L310.126 148.4C310.126 148.4 328.603 147.234 333.909 147.973Z" fill="white"/>
<path d="M227.967 263.587C228.185 263.859 228.389 264.134 228.633 264.389C236.026 269.828 260.697 283.183 296.62 268.992C340.787 251.535 340.879 211.245 340.879 211.245L349.571 208.414C348.504 202.632 347.777 197.298 347.3 192.371C347.3 192.371 261.2 131.165 203.524 198.428C207.192 226.292 219.156 252.222 227.967 263.587Z" fill="url(#paint19_linear_11_938)"/>
<path d="M334.393 219.035C334.393 219.035 333.542 228.621 330.222 234.803L324.398 232.647C324.398 232.647 327.134 223.705 328.108 218.406L334.393 219.035Z" fill="white"/>
<path style="mix-blend-mode:multiply" fill-rule="evenodd" clip-rule="evenodd" d="M508.768 286.137C508.768 286.137 501.21 297.28 491.986 299.082C482.762 300.885 479.01 291.633 479.01 291.633C479.01 291.633 479.065 299.628 488.57 307.017C488.57 307.017 504.327 298.632 508.768 286.137Z" fill="url(#paint20_linear_11_938)"/>
<path style="mix-blend-mode:multiply" fill-rule="evenodd" clip-rule="evenodd" d="M198.081 339.527C201.666 341.12 205.425 342.288 209.281 343.006C211.928 337.456 212.596 331.168 211.174 325.186C211.174 325.186 210.233 323.608 208.683 321.33C208.683 321.33 210.504 331.27 198.081 339.527Z" fill="url(#paint21_linear_11_938)"/>
<path fill-rule="evenodd" clip-rule="evenodd" d="M347.918 335.151C348.845 336.872 350.103 338.393 351.62 339.627C353.136 340.861 354.881 341.783 356.755 342.341C358.629 342.898 360.594 343.081 362.539 342.877C364.483 342.674 366.368 342.088 368.085 341.154C369.808 340.229 371.33 338.971 372.565 337.455C373.8 335.939 374.723 334.193 375.281 332.319C375.839 330.445 376.021 328.479 375.816 326.534C375.612 324.589 375.025 322.704 374.089 320.987C373.162 319.266 371.904 317.745 370.388 316.511C368.871 315.277 367.126 314.355 365.252 313.797C363.378 313.239 361.413 313.057 359.469 313.26C357.524 313.464 355.639 314.049 353.922 314.983C352.201 315.91 350.68 317.168 349.446 318.685C348.212 320.201 347.29 321.946 346.732 323.82C346.174 325.694 345.992 327.659 346.195 329.604C346.399 331.548 346.984 333.433 347.918 335.151Z" fill="#684D73"/>
<path fill-rule="evenodd" clip-rule="evenodd" d="M352.777 332.531C353.958 334.7 355.952 336.311 358.32 337.01C360.688 337.71 363.237 337.441 365.406 336.263C366.482 335.679 367.431 334.889 368.2 333.939C368.97 332.988 369.545 331.895 369.891 330.722C370.238 329.549 370.35 328.319 370.22 327.103C370.091 325.886 369.723 324.707 369.138 323.633C367.957 321.465 365.964 319.854 363.596 319.154C361.227 318.454 358.679 318.723 356.509 319.902C354.34 321.083 352.729 323.076 352.029 325.444C351.33 327.812 351.599 330.361 352.777 332.531Z" fill="url(#paint22_linear_11_938)"/>
<path fill-rule="evenodd" clip-rule="evenodd" d="M403.726 283.248C403.726 283.248 392.186 300.667 379.488 277.144C379.488 277.144 397.02 281.783 403.726 283.248Z" fill="#684D73"/>
<path d="M371.19 487.074C381.231 485.583 391.157 483.404 400.899 480.55L400.672 479.823C400.183 479.975 351.772 494.458 335.466 483.369L335.044 483.994C342.901 489.395 357.663 488.988 371.19 487.074Z" fill="#53345F"/>
<path d="M437.51 474.829L438.267 474.722C436.444 465.867 436.005 456.782 436.966 447.793C439.529 424.856 464.777 393.354 465.023 393.043L464.43 392.561C464.185 392.872 438.795 424.546 436.209 447.707C435.246 456.761 435.685 465.909 437.51 474.829Z" fill="#53345F"/>
<path d="M477.805 339.559L478.401 339.088C446.557 298.558 465.364 280.815 465.548 280.651L465.054 280.086C464.845 280.267 460.009 284.705 459.147 294.306C458.297 303.12 460.961 318.141 477.805 339.559Z" fill="#53345F"/>
<path d="M241.459 369.911C255.993 340.795 223.863 312.765 223.548 312.493L223.049 313.06C223.365 313.346 255.055 340.997 240.789 369.564L241.459 369.911Z" fill="#53345F"/>
<path d="M378.113 368.808C379.779 371.75 381.814 374.467 384.17 376.892L390.008 372.906C388.298 369.867 385.731 367.399 382.628 365.809L378.113 368.808Z" fill="white"/>
<path d="M452.532 287.254C450.297 288.31 447.841 288.814 445.371 288.722L443.226 292.283C443.226 292.283 448.977 294.601 452.324 291.146L452.532 287.254Z" fill="white"/>
<path d="M491.641 441.198C494.578 442.966 497.042 445.42 498.821 448.351L495.098 452.755L488.606 445.395L491.641 441.198Z" fill="white"/>
<path d="M213.422 311.042C215.836 311.878 217.924 313.457 219.386 315.552L224.263 315.786C223.244 314.663 222.093 313.668 220.835 312.822C218.878 311.567 213.422 311.042 213.422 311.042Z" fill="white"/>
<path d="M343.913 496.84C343.913 496.84 342.868 508.952 344.905 514.376L339.871 514.978C337.962 509.542 337.385 503.728 338.189 498.023L343.913 496.84Z" fill="white"/>
<path d="M316.974 107.292C316.974 107.292 287.405 100.963 269.533 104.155C269.533 104.155 331.854 86.668 316.974 107.292Z" fill="white"/>
<path d="M362.711 164.869L351.667 163.562L350.767 175.529L361.289 175.874L362.711 164.869Z" fill="white"/>
<defs>
<radialGradient id="paint0_radial_11_938" cx="0" cy="0" r="1" gradientUnits="userSpaceOnUse" gradientTransform="translate(276.007 275.972) scale(276.007 275.972)">
<stop offset="0.81" stop-color="#008BC4"/>
<stop offset="0.979167" stop-opacity="0"/>
</radialGradient>
<radialGradient id="paint1_radial_11_938" cx="0" cy="0" r="1" gradientUnits="userSpaceOnUse" gradientTransform="translate(221.372 192.218) scale(352.047 352.003)">
<stop stop-color="#7C83FF"/>
<stop offset="0.84" stop-color="#482088"/>
<stop offset="0.95" stop-color="#403B77"/>
<stop offset="1" stop-color="#4D79D1"/>
</radialGradient>
<radialGradient id="paint2_radial_11_938" cx="0" cy="0" r="1" gradientUnits="userSpaceOnUse" gradientTransform="translate(425.22 481.752) rotate(-32.6268) scale(126.439 60.6876)">
<stop stop-color="#2C6AFF"/>
<stop offset="1" stop-opacity="0"/>
</radialGradient>
<radialGradient id="paint3_radial_11_938" cx="0" cy="0" r="1" gradientUnits="userSpaceOnUse" gradientTransform="translate(269.268 332.713) rotate(151.643) scale(52.3805 52.3805)">
<stop stop-color="#F4DBEE"/>
<stop offset="1" stop-color="#D1BDE5"/>
</radialGradient>
<linearGradient id="paint4_linear_11_938" x1="291.577" y1="337.249" x2="250.117" y2="343.2" gradientUnits="userSpaceOnUse">
<stop stop-color="#AA367C"/>
<stop offset="1" stop-color="#4A2FBD"/>
</linearGradient>
<linearGradient id="paint5_linear_11_938" x1="329.052" y1="316.685" x2="274.373" y2="346.197" gradientUnits="userSpaceOnUse">
<stop stop-color="#9579A7"/>
<stop offset="1" stop-color="white"/>
</linearGradient>
<radialGradient id="paint6_radial_11_938" cx="0" cy="0" r="1" gradientUnits="userSpaceOnUse" gradientTransform="translate(335.19 504.066) rotate(151.643) scale(55.8371 55.8371)">
<stop stop-color="#F4F1FF"/>
<stop offset="1" stop-color="#D1BDE5"/>
</radialGradient>
<radialGradient id="paint7_radial_11_938" cx="0" cy="0" r="1" gradientUnits="userSpaceOnUse" gradientTransform="translate(429.565 303.374) rotate(151.643) scale(57.1759)">
<stop stop-color="#F4DBEE"/>
<stop offset="1" stop-color="#D1BDE5"/>
</radialGradient>
<radialGradient id="paint8_radial_11_938" cx="0" cy="0" r="1" gradientUnits="userSpaceOnUse" gradientTransform="translate(462.568 446.789) rotate(151.643) scale(67.3269 67.3269)">
<stop stop-color="#F4F1FF"/>
<stop offset="1" stop-color="#D1BDE5"/>
</radialGradient>
<linearGradient id="paint9_linear_11_938" x1="525.451" y1="459.275" x2="447.527" y2="470.638" gradientUnits="userSpaceOnUse">
<stop stop-color="#AA367C"/>
<stop offset="1" stop-color="#4A2FBD"/>
</linearGradient>
<linearGradient id="paint10_linear_11_938" x1="407.466" y1="509.787" x2="334.769" y2="520.482" gradientUnits="userSpaceOnUse">
<stop stop-color="#AA367C"/>
<stop offset="1" stop-color="#4A2FBD"/>
</linearGradient>
<linearGradient id="paint11_linear_11_938" x1="441.315" y1="314.65" x2="395.787" y2="321.181" gradientUnits="userSpaceOnUse">
<stop stop-color="#AA367C"/>
<stop offset="1" stop-color="#4A2FBD"/>
</linearGradient>
<linearGradient id="paint12_linear_11_938" x1="508.892" y1="353.989" x2="335.02" y2="447.833" gradientUnits="userSpaceOnUse">
<stop stop-color="white"/>
<stop offset="1" stop-color="#9579A7"/>
</linearGradient>
<linearGradient id="paint13_linear_11_938" x1="351.441" y1="279.093" x2="256.552" y2="103.285" gradientUnits="userSpaceOnUse">
<stop stop-color="#D1BDE5"/>
<stop offset="1" stop-color="white"/>
</linearGradient>
<linearGradient id="paint14_linear_11_938" x1="362.453" y1="170.661" x2="185.061" y2="196.392" gradientUnits="userSpaceOnUse">
<stop stop-color="#AA367C"/>
<stop offset="1" stop-color="#4A2FBD"/>
</linearGradient>
<linearGradient id="paint15_linear_11_938" x1="417.902" y1="176.17" x2="238.643" y2="272.921" gradientUnits="userSpaceOnUse">
<stop stop-color="white"/>
<stop offset="1" stop-color="#9579A7"/>
</linearGradient>
<linearGradient id="paint16_linear_11_938" x1="398.339" y1="241.982" x2="347.985" y2="148.685" gradientUnits="userSpaceOnUse">
<stop stop-color="#D1BDE5"/>
<stop offset="1" stop-color="#F4DBEE"/>
</linearGradient>
<linearGradient id="paint17_linear_11_938" x1="410.965" y1="542.749" x2="370.063" y2="564.825" gradientUnits="userSpaceOnUse">
<stop stop-color="white"/>
<stop offset="1" stop-color="#9579A7"/>
</linearGradient>
<linearGradient id="paint18_linear_11_938" x1="535.63" y1="489.793" x2="497.11" y2="510.584" gradientUnits="userSpaceOnUse">
<stop stop-color="white"/>
<stop offset="1" stop-color="#9579A7"/>
</linearGradient>
<linearGradient id="paint19_linear_11_938" x1="357.554" y1="202.526" x2="190.46" y2="227.008" gradientUnits="userSpaceOnUse">
<stop stop-color="#5A30B2"/>
<stop offset="1" stop-color="#4A2FBD"/>
</linearGradient>
<linearGradient id="paint20_linear_11_938" x1="508.65" y1="285.856" x2="482.104" y2="300.184" gradientUnits="userSpaceOnUse">
<stop stop-color="white"/>
<stop offset="1" stop-color="#9579A7"/>
</linearGradient>
<linearGradient id="paint21_linear_11_938" x1="213.606" y1="329.625" x2="197.472" y2="338.333" gradientUnits="userSpaceOnUse">
<stop stop-color="#9579A7"/>
<stop offset="1" stop-color="white"/>
</linearGradient>
<linearGradient id="paint22_linear_11_938" x1="371.166" y1="325.643" x2="349.432" y2="328.801" gradientUnits="userSpaceOnUse">
<stop stop-color="#AA367C"/>
<stop offset="1" stop-color="#4A2FBD"/>
</linearGradient>
</defs>
</svg>
